M48
;GenerationSoftware,Autodesk,EAGLE,9.6.1*%
;CreationDate,2024-02-11T07:43:16Z*%
FMAT,2
ICI,OFF
METRIC,TZ,000.000
T4C0.300
T3C0.350
T2C1.100
T1C2.000
%
G90
M71
T1
X10001Y-5239
X-3334Y-5239
X-3334Y6667
X10160Y6667
T2
X16524Y3044
X16524Y-1456
T3
X-635Y6985
X8414Y5874
X-1905Y-1270
X11906Y-3651
X3175Y-1270
X-6985Y5080
X-3016Y3810
X-318Y2381
X13017Y5556
X14287Y5556
X14287Y3016
X13017Y3016
X5080Y1905
X-12541Y3175
X-12541Y2223
X-9843Y3175
X5080Y-476
X13494Y-4604
X8255Y-3969
X-12382Y6826
X-10319Y5715
X-9843Y2223
T4
X-6191Y-1111
X-7302Y374
X-12382Y-1587
X-9843Y-635
X1270Y-4604
X-12700Y-4604
X-9843Y-5398
X1270Y-5556
M30