M48
;GenerationSoftware,Autodesk,EAGLE,9.6.1*%
;CreationDate,2024-08-31T15:23:26Z*%
FMAT,2
ICI,OFF
METRIC,TZ,000.000
T4C0.300
T3C0.350
T2C1.100
T1C2.000
%
G90
M71
T1
X-6032Y1270
X-6032Y13176
X7461Y13176
X7302Y1270
T2
X13825Y9553
X13825Y5053
T3
X-13970Y5398
X-15240Y5874
X-12700Y4921
X2699Y7620
X476Y5398
X-3651Y13494
X-3969Y11589
X-10001Y11589
X-9208Y10319
X11075Y10803
X11906Y10795
X10319Y10803
X-2311Y3943
X-12700Y1587
X-15399Y2064
X-13970Y1587
X-13017Y9208
X-13017Y13017
T4
X-6133Y4434
M30