G04 EAGLE Gerber RS-274X export*
G75*
%MOMM*%
%FSLAX34Y34*%
%LPD*%
%IN*%
%IPPOS*%
%AMOC8*
5,1,8,0,0,1.08239X$1,22.5*%
G01*
%ADD10C,0.254000*%


D10*
X-161925Y0D02*
X165100Y0D01*
X165100Y146050D01*
X-161925Y146050D01*
X-161925Y0D01*
X123825Y128588D02*
X152400Y128588D01*
X152400Y134938D01*
X123825Y134938D01*
X123825Y128588D01*
X123825Y11113D02*
X152400Y11113D01*
X152400Y17463D01*
X123825Y17463D01*
X123825Y11113D01*
X-50325Y12263D02*
X-50401Y11394D01*
X-50553Y10534D01*
X-50779Y9690D01*
X-51077Y8870D01*
X-51446Y8078D01*
X-51883Y7322D01*
X-52384Y6607D01*
X-52945Y5938D01*
X-53563Y5320D01*
X-54232Y4759D01*
X-54947Y4258D01*
X-55703Y3821D01*
X-56495Y3452D01*
X-57315Y3154D01*
X-58159Y2928D01*
X-59019Y2776D01*
X-59888Y2700D01*
X-60762Y2700D01*
X-61632Y2776D01*
X-62491Y2928D01*
X-63335Y3154D01*
X-64155Y3452D01*
X-64947Y3821D01*
X-65703Y4258D01*
X-66418Y4759D01*
X-67087Y5320D01*
X-67705Y5938D01*
X-68266Y6607D01*
X-68767Y7322D01*
X-69204Y8078D01*
X-69573Y8870D01*
X-69871Y9690D01*
X-70097Y10534D01*
X-70249Y11394D01*
X-70325Y12263D01*
X-70325Y13137D01*
X-70249Y14007D01*
X-70097Y14866D01*
X-69871Y15710D01*
X-69573Y16530D01*
X-69204Y17322D01*
X-68767Y18078D01*
X-68266Y18793D01*
X-67705Y19462D01*
X-67087Y20080D01*
X-66418Y20641D01*
X-65703Y21142D01*
X-64947Y21579D01*
X-64155Y21948D01*
X-63335Y22246D01*
X-62491Y22472D01*
X-61632Y22624D01*
X-60762Y22700D01*
X-59888Y22700D01*
X-59019Y22624D01*
X-58159Y22472D01*
X-57315Y22246D01*
X-56495Y21948D01*
X-55703Y21579D01*
X-54947Y21142D01*
X-54232Y20641D01*
X-53563Y20080D01*
X-52945Y19462D01*
X-52384Y18793D01*
X-51883Y18078D01*
X-51446Y17322D01*
X-51077Y16530D01*
X-50779Y15710D01*
X-50553Y14866D01*
X-50401Y14007D01*
X-50325Y13137D01*
X-50325Y12263D01*
X-50325Y131326D02*
X-50401Y130456D01*
X-50553Y129596D01*
X-50779Y128753D01*
X-51077Y127932D01*
X-51446Y127141D01*
X-51883Y126384D01*
X-52384Y125669D01*
X-52945Y125000D01*
X-53563Y124383D01*
X-54232Y123821D01*
X-54947Y123321D01*
X-55703Y122884D01*
X-56495Y122515D01*
X-57315Y122216D01*
X-58159Y121990D01*
X-59019Y121839D01*
X-59888Y121763D01*
X-60762Y121763D01*
X-61632Y121839D01*
X-62491Y121990D01*
X-63335Y122216D01*
X-64155Y122515D01*
X-64947Y122884D01*
X-65703Y123321D01*
X-66418Y123821D01*
X-67087Y124383D01*
X-67705Y125000D01*
X-68266Y125669D01*
X-68767Y126384D01*
X-69204Y127141D01*
X-69573Y127932D01*
X-69871Y128753D01*
X-70097Y129596D01*
X-70249Y130456D01*
X-70325Y131326D01*
X-70325Y132199D01*
X-70249Y133069D01*
X-70097Y133929D01*
X-69871Y134772D01*
X-69573Y135593D01*
X-69204Y136384D01*
X-68767Y137141D01*
X-68266Y137856D01*
X-67705Y138525D01*
X-67087Y139142D01*
X-66418Y139704D01*
X-65703Y140204D01*
X-64947Y140641D01*
X-64155Y141010D01*
X-63335Y141309D01*
X-62491Y141535D01*
X-61632Y141686D01*
X-60762Y141763D01*
X-59888Y141763D01*
X-59019Y141686D01*
X-58159Y141535D01*
X-57315Y141309D01*
X-56495Y141010D01*
X-55703Y140641D01*
X-54947Y140204D01*
X-54232Y139704D01*
X-53563Y139142D01*
X-52945Y138525D01*
X-52384Y137856D01*
X-51883Y137141D01*
X-51446Y136384D01*
X-51077Y135593D01*
X-50779Y134772D01*
X-50553Y133929D01*
X-50401Y133069D01*
X-50325Y132199D01*
X-50325Y131326D01*
X84613Y131326D02*
X84536Y130456D01*
X84385Y129596D01*
X84159Y128753D01*
X83860Y127932D01*
X83491Y127141D01*
X83054Y126384D01*
X82554Y125669D01*
X81992Y125000D01*
X81375Y124383D01*
X80706Y123821D01*
X79991Y123321D01*
X79234Y122884D01*
X78443Y122515D01*
X77622Y122216D01*
X76779Y121990D01*
X75919Y121839D01*
X75049Y121763D01*
X74176Y121763D01*
X73306Y121839D01*
X72446Y121990D01*
X71603Y122216D01*
X70782Y122515D01*
X69991Y122884D01*
X69234Y123321D01*
X68519Y123821D01*
X67850Y124383D01*
X67233Y125000D01*
X66671Y125669D01*
X66171Y126384D01*
X65734Y127141D01*
X65365Y127932D01*
X65066Y128753D01*
X64840Y129596D01*
X64689Y130456D01*
X64613Y131326D01*
X64613Y132199D01*
X64689Y133069D01*
X64840Y133929D01*
X65066Y134772D01*
X65365Y135593D01*
X65734Y136384D01*
X66171Y137141D01*
X66671Y137856D01*
X67233Y138525D01*
X67850Y139142D01*
X68519Y139704D01*
X69234Y140204D01*
X69991Y140641D01*
X70782Y141010D01*
X71603Y141309D01*
X72446Y141535D01*
X73306Y141686D01*
X74176Y141763D01*
X75049Y141763D01*
X75919Y141686D01*
X76779Y141535D01*
X77622Y141309D01*
X78443Y141010D01*
X79234Y140641D01*
X79991Y140204D01*
X80706Y139704D01*
X81375Y139142D01*
X81992Y138525D01*
X82554Y137856D01*
X83054Y137141D01*
X83491Y136384D01*
X83860Y135593D01*
X84159Y134772D01*
X84385Y133929D01*
X84536Y133069D01*
X84613Y132199D01*
X84613Y131326D01*
X83025Y12263D02*
X82949Y11394D01*
X82797Y10534D01*
X82571Y9690D01*
X82273Y8870D01*
X81904Y8078D01*
X81467Y7322D01*
X80966Y6607D01*
X80405Y5938D01*
X79787Y5320D01*
X79118Y4759D01*
X78403Y4258D01*
X77647Y3821D01*
X76855Y3452D01*
X76035Y3154D01*
X75191Y2928D01*
X74332Y2776D01*
X73462Y2700D01*
X72588Y2700D01*
X71719Y2776D01*
X70859Y2928D01*
X70015Y3154D01*
X69195Y3452D01*
X68403Y3821D01*
X67647Y4258D01*
X66932Y4759D01*
X66263Y5320D01*
X65645Y5938D01*
X65084Y6607D01*
X64583Y7322D01*
X64146Y8078D01*
X63777Y8870D01*
X63479Y9690D01*
X63253Y10534D01*
X63101Y11394D01*
X63025Y12263D01*
X63025Y13137D01*
X63101Y14007D01*
X63253Y14866D01*
X63479Y15710D01*
X63777Y16530D01*
X64146Y17322D01*
X64583Y18078D01*
X65084Y18793D01*
X65645Y19462D01*
X66263Y20080D01*
X66932Y20641D01*
X67647Y21142D01*
X68403Y21579D01*
X69195Y21948D01*
X70015Y22246D01*
X70859Y22472D01*
X71719Y22624D01*
X72588Y22700D01*
X73462Y22700D01*
X74332Y22624D01*
X75191Y22472D01*
X76035Y22246D01*
X76855Y21948D01*
X77647Y21579D01*
X78403Y21142D01*
X79118Y20641D01*
X79787Y20080D01*
X80405Y19462D01*
X80966Y18793D01*
X81467Y18078D01*
X81904Y17322D01*
X82273Y16530D01*
X82571Y15710D01*
X82797Y14866D01*
X82949Y14007D01*
X83025Y13137D01*
X83025Y12263D01*
X138559Y101025D02*
X139173Y100956D01*
X139775Y100818D01*
X140358Y100614D01*
X140915Y100346D01*
X141438Y100018D01*
X141921Y99633D01*
X142358Y99196D01*
X142743Y98713D01*
X143071Y98190D01*
X143339Y97633D01*
X143543Y97050D01*
X143681Y96448D01*
X143750Y95834D01*
X143750Y95216D01*
X143681Y94602D01*
X143543Y94000D01*
X143339Y93417D01*
X143071Y92860D01*
X142743Y92337D01*
X142358Y91854D01*
X141921Y91418D01*
X141438Y91032D01*
X140915Y90704D01*
X140358Y90436D01*
X139775Y90232D01*
X139173Y90094D01*
X138559Y90025D01*
X137941Y90025D01*
X137327Y90094D01*
X136725Y90232D01*
X136142Y90436D01*
X135585Y90704D01*
X135062Y91032D01*
X134579Y91418D01*
X134143Y91854D01*
X133757Y92337D01*
X133429Y92860D01*
X133161Y93417D01*
X132957Y94000D01*
X132819Y94602D01*
X132750Y95216D01*
X132750Y95834D01*
X132819Y96448D01*
X132957Y97050D01*
X133161Y97633D01*
X133429Y98190D01*
X133757Y98713D01*
X134143Y99196D01*
X134579Y99633D01*
X135062Y100018D01*
X135585Y100346D01*
X136142Y100614D01*
X136725Y100818D01*
X137327Y100956D01*
X137941Y101025D01*
X138559Y101025D01*
X138559Y56025D02*
X139173Y55956D01*
X139775Y55818D01*
X140358Y55614D01*
X140915Y55346D01*
X141438Y55018D01*
X141921Y54633D01*
X142358Y54196D01*
X142743Y53713D01*
X143071Y53190D01*
X143339Y52633D01*
X143543Y52050D01*
X143681Y51448D01*
X143750Y50834D01*
X143750Y50216D01*
X143681Y49602D01*
X143543Y49000D01*
X143339Y48417D01*
X143071Y47860D01*
X142743Y47337D01*
X142358Y46854D01*
X141921Y46418D01*
X141438Y46032D01*
X140915Y45704D01*
X140358Y45436D01*
X139775Y45232D01*
X139173Y45094D01*
X138559Y45025D01*
X137941Y45025D01*
X137327Y45094D01*
X136725Y45232D01*
X136142Y45436D01*
X135585Y45704D01*
X135062Y46032D01*
X134579Y46418D01*
X134143Y46854D01*
X133757Y47337D01*
X133429Y47860D01*
X133161Y48417D01*
X132957Y49000D01*
X132819Y49602D01*
X132750Y50216D01*
X132750Y50834D01*
X132819Y51448D01*
X132957Y52050D01*
X133161Y52633D01*
X133429Y53190D01*
X133757Y53713D01*
X134143Y54196D01*
X134579Y54633D01*
X135062Y55018D01*
X135585Y55346D01*
X136142Y55614D01*
X136725Y55818D01*
X137327Y55956D01*
X137941Y56025D01*
X138559Y56025D01*
M02*
