G04 EAGLE Gerber RS-274X export*
G75*
%MOMM*%
%FSLAX34Y34*%
%LPD*%
%IN*%
%IPPOS*%
%AMOC8*
5,1,8,0,0,1.08239X$1,22.5*%
G01*
%ADD10C,0.254000*%


D10*
X-134938Y-65088D02*
X192088Y-65088D01*
X192088Y80963D01*
X-134938Y80963D01*
X-134938Y-65088D01*
X150813Y63500D02*
X179388Y63500D01*
X179388Y69850D01*
X150813Y69850D01*
X150813Y63500D01*
X150813Y-53975D02*
X179388Y-53975D01*
X179388Y-47625D01*
X150813Y-47625D01*
X150813Y-53975D01*
X-23338Y-52824D02*
X-23414Y-53694D01*
X-23565Y-54554D01*
X-23791Y-55397D01*
X-24090Y-56218D01*
X-24459Y-57009D01*
X-24896Y-57766D01*
X-25396Y-58481D01*
X-25958Y-59150D01*
X-26575Y-59767D01*
X-27244Y-60329D01*
X-27959Y-60829D01*
X-28716Y-61266D01*
X-29507Y-61635D01*
X-30328Y-61934D01*
X-31171Y-62160D01*
X-32031Y-62311D01*
X-32901Y-62388D01*
X-33774Y-62388D01*
X-34644Y-62311D01*
X-35504Y-62160D01*
X-36347Y-61934D01*
X-37168Y-61635D01*
X-37959Y-61266D01*
X-38716Y-60829D01*
X-39431Y-60329D01*
X-40100Y-59767D01*
X-40717Y-59150D01*
X-41279Y-58481D01*
X-41779Y-57766D01*
X-42216Y-57009D01*
X-42585Y-56218D01*
X-42884Y-55397D01*
X-43110Y-54554D01*
X-43261Y-53694D01*
X-43338Y-52824D01*
X-43338Y-51951D01*
X-43261Y-51081D01*
X-43110Y-50221D01*
X-42884Y-49378D01*
X-42585Y-48557D01*
X-42216Y-47766D01*
X-41779Y-47009D01*
X-41279Y-46294D01*
X-40717Y-45625D01*
X-40100Y-45008D01*
X-39431Y-44446D01*
X-38716Y-43946D01*
X-37959Y-43509D01*
X-37168Y-43140D01*
X-36347Y-42841D01*
X-35504Y-42615D01*
X-34644Y-42464D01*
X-33774Y-42388D01*
X-32901Y-42388D01*
X-32031Y-42464D01*
X-31171Y-42615D01*
X-30328Y-42841D01*
X-29507Y-43140D01*
X-28716Y-43509D01*
X-27959Y-43946D01*
X-27244Y-44446D01*
X-26575Y-45008D01*
X-25958Y-45625D01*
X-25396Y-46294D01*
X-24896Y-47009D01*
X-24459Y-47766D01*
X-24090Y-48557D01*
X-23791Y-49378D01*
X-23565Y-50221D01*
X-23414Y-51081D01*
X-23338Y-51951D01*
X-23338Y-52824D01*
X-23338Y66238D02*
X-23414Y65369D01*
X-23565Y64509D01*
X-23791Y63665D01*
X-24090Y62845D01*
X-24459Y62053D01*
X-24896Y61297D01*
X-25396Y60582D01*
X-25958Y59913D01*
X-26575Y59295D01*
X-27244Y58734D01*
X-27959Y58233D01*
X-28716Y57796D01*
X-29507Y57427D01*
X-30328Y57129D01*
X-31171Y56903D01*
X-32031Y56751D01*
X-32901Y56675D01*
X-33774Y56675D01*
X-34644Y56751D01*
X-35504Y56903D01*
X-36347Y57129D01*
X-37168Y57427D01*
X-37959Y57796D01*
X-38716Y58233D01*
X-39431Y58734D01*
X-40100Y59295D01*
X-40717Y59913D01*
X-41279Y60582D01*
X-41779Y61297D01*
X-42216Y62053D01*
X-42585Y62845D01*
X-42884Y63665D01*
X-43110Y64509D01*
X-43261Y65369D01*
X-43338Y66238D01*
X-43338Y67112D01*
X-43261Y67982D01*
X-43110Y68841D01*
X-42884Y69685D01*
X-42585Y70505D01*
X-42216Y71297D01*
X-41779Y72053D01*
X-41279Y72768D01*
X-40717Y73437D01*
X-40100Y74055D01*
X-39431Y74616D01*
X-38716Y75117D01*
X-37959Y75554D01*
X-37168Y75923D01*
X-36347Y76221D01*
X-35504Y76447D01*
X-34644Y76599D01*
X-33774Y76675D01*
X-32901Y76675D01*
X-32031Y76599D01*
X-31171Y76447D01*
X-30328Y76221D01*
X-29507Y75923D01*
X-28716Y75554D01*
X-27959Y75117D01*
X-27244Y74616D01*
X-26575Y74055D01*
X-25958Y73437D01*
X-25396Y72768D01*
X-24896Y72053D01*
X-24459Y71297D01*
X-24090Y70505D01*
X-23791Y69685D01*
X-23565Y68841D01*
X-23414Y67982D01*
X-23338Y67112D01*
X-23338Y66238D01*
X111600Y66238D02*
X111524Y65369D01*
X111372Y64509D01*
X111146Y63665D01*
X110848Y62845D01*
X110479Y62053D01*
X110042Y61297D01*
X109541Y60582D01*
X108980Y59913D01*
X108362Y59295D01*
X107693Y58734D01*
X106978Y58233D01*
X106222Y57796D01*
X105430Y57427D01*
X104610Y57129D01*
X103766Y56903D01*
X102907Y56751D01*
X102037Y56675D01*
X101163Y56675D01*
X100294Y56751D01*
X99434Y56903D01*
X98590Y57129D01*
X97770Y57427D01*
X96978Y57796D01*
X96222Y58233D01*
X95507Y58734D01*
X94838Y59295D01*
X94220Y59913D01*
X93659Y60582D01*
X93158Y61297D01*
X92721Y62053D01*
X92352Y62845D01*
X92054Y63665D01*
X91828Y64509D01*
X91676Y65369D01*
X91600Y66238D01*
X91600Y67112D01*
X91676Y67982D01*
X91828Y68841D01*
X92054Y69685D01*
X92352Y70505D01*
X92721Y71297D01*
X93158Y72053D01*
X93659Y72768D01*
X94220Y73437D01*
X94838Y74055D01*
X95507Y74616D01*
X96222Y75117D01*
X96978Y75554D01*
X97770Y75923D01*
X98590Y76221D01*
X99434Y76447D01*
X100294Y76599D01*
X101163Y76675D01*
X102037Y76675D01*
X102907Y76599D01*
X103766Y76447D01*
X104610Y76221D01*
X105430Y75923D01*
X106222Y75554D01*
X106978Y75117D01*
X107693Y74616D01*
X108362Y74055D01*
X108980Y73437D01*
X109541Y72768D01*
X110042Y72053D01*
X110479Y71297D01*
X110848Y70505D01*
X111146Y69685D01*
X111372Y68841D01*
X111524Y67982D01*
X111600Y67112D01*
X111600Y66238D01*
X110013Y-52824D02*
X109936Y-53694D01*
X109785Y-54554D01*
X109559Y-55397D01*
X109260Y-56218D01*
X108891Y-57009D01*
X108454Y-57766D01*
X107954Y-58481D01*
X107392Y-59150D01*
X106775Y-59767D01*
X106106Y-60329D01*
X105391Y-60829D01*
X104634Y-61266D01*
X103843Y-61635D01*
X103022Y-61934D01*
X102179Y-62160D01*
X101319Y-62311D01*
X100449Y-62388D01*
X99576Y-62388D01*
X98706Y-62311D01*
X97846Y-62160D01*
X97003Y-61934D01*
X96182Y-61635D01*
X95391Y-61266D01*
X94634Y-60829D01*
X93919Y-60329D01*
X93250Y-59767D01*
X92633Y-59150D01*
X92071Y-58481D01*
X91571Y-57766D01*
X91134Y-57009D01*
X90765Y-56218D01*
X90466Y-55397D01*
X90240Y-54554D01*
X90089Y-53694D01*
X90013Y-52824D01*
X90013Y-51951D01*
X90089Y-51081D01*
X90240Y-50221D01*
X90466Y-49378D01*
X90765Y-48557D01*
X91134Y-47766D01*
X91571Y-47009D01*
X92071Y-46294D01*
X92633Y-45625D01*
X93250Y-45008D01*
X93919Y-44446D01*
X94634Y-43946D01*
X95391Y-43509D01*
X96182Y-43140D01*
X97003Y-42841D01*
X97846Y-42615D01*
X98706Y-42464D01*
X99576Y-42388D01*
X100449Y-42388D01*
X101319Y-42464D01*
X102179Y-42615D01*
X103022Y-42841D01*
X103843Y-43140D01*
X104634Y-43509D01*
X105391Y-43946D01*
X106106Y-44446D01*
X106775Y-45008D01*
X107392Y-45625D01*
X107954Y-46294D01*
X108454Y-47009D01*
X108891Y-47766D01*
X109260Y-48557D01*
X109559Y-49378D01*
X109785Y-50221D01*
X109936Y-51081D01*
X110013Y-51951D01*
X110013Y-52824D01*
X165546Y35938D02*
X166160Y35868D01*
X166763Y35731D01*
X167346Y35527D01*
X167902Y35259D01*
X168425Y34930D01*
X168908Y34545D01*
X169345Y34108D01*
X169730Y33625D01*
X170059Y33102D01*
X170327Y32546D01*
X170531Y31963D01*
X170668Y31360D01*
X170738Y30746D01*
X170738Y30129D01*
X170668Y29515D01*
X170531Y28913D01*
X170327Y28329D01*
X170059Y27773D01*
X169730Y27250D01*
X169345Y26767D01*
X168908Y26330D01*
X168425Y25945D01*
X167902Y25616D01*
X167346Y25348D01*
X166763Y25144D01*
X166160Y25007D01*
X165546Y24938D01*
X164929Y24938D01*
X164315Y25007D01*
X163713Y25144D01*
X163129Y25348D01*
X162573Y25616D01*
X162050Y25945D01*
X161567Y26330D01*
X161130Y26767D01*
X160745Y27250D01*
X160416Y27773D01*
X160148Y28329D01*
X159944Y28913D01*
X159807Y29515D01*
X159738Y30129D01*
X159738Y30746D01*
X159807Y31360D01*
X159944Y31963D01*
X160148Y32546D01*
X160416Y33102D01*
X160745Y33625D01*
X161130Y34108D01*
X161567Y34545D01*
X162050Y34930D01*
X162573Y35259D01*
X163129Y35527D01*
X163713Y35731D01*
X164315Y35868D01*
X164929Y35938D01*
X165546Y35938D01*
X165546Y-9063D02*
X166160Y-9132D01*
X166763Y-9269D01*
X167346Y-9473D01*
X167902Y-9741D01*
X168425Y-10070D01*
X168908Y-10455D01*
X169345Y-10892D01*
X169730Y-11375D01*
X170059Y-11898D01*
X170327Y-12454D01*
X170531Y-13038D01*
X170668Y-13640D01*
X170738Y-14254D01*
X170738Y-14871D01*
X170668Y-15485D01*
X170531Y-16088D01*
X170327Y-16671D01*
X170059Y-17227D01*
X169730Y-17750D01*
X169345Y-18233D01*
X168908Y-18670D01*
X168425Y-19055D01*
X167902Y-19384D01*
X167346Y-19652D01*
X166763Y-19856D01*
X166160Y-19993D01*
X165546Y-20063D01*
X164929Y-20063D01*
X164315Y-19993D01*
X163713Y-19856D01*
X163129Y-19652D01*
X162573Y-19384D01*
X162050Y-19055D01*
X161567Y-18670D01*
X161130Y-18233D01*
X160745Y-17750D01*
X160416Y-17227D01*
X160148Y-16671D01*
X159944Y-16088D01*
X159807Y-15485D01*
X159738Y-14871D01*
X159738Y-14254D01*
X159807Y-13640D01*
X159944Y-13038D01*
X160148Y-12454D01*
X160416Y-11898D01*
X160745Y-11375D01*
X161130Y-10892D01*
X161567Y-10455D01*
X162050Y-10070D01*
X162573Y-9741D01*
X163129Y-9473D01*
X163713Y-9269D01*
X164315Y-9132D01*
X164929Y-9063D01*
X165546Y-9063D01*
M02*
