G04 EAGLE Gerber RS-274X export*
G75*
%MOMM*%
%FSLAX34Y34*%
%LPD*%
%INSilkscreen Bottom*%
%IPPOS*%
%AMOC8*
5,1,8,0,0,1.08239X$1,22.5*%
G01*
%ADD10C,0.152400*%
%ADD11C,0.076200*%
%ADD12C,0.254000*%
%ADD13R,0.259075X0.015238*%
%ADD14R,1.310638X0.015238*%
%ADD15R,0.015238X0.015238*%
%ADD16R,0.304800X0.015238*%
%ADD17R,1.356356X0.015238*%
%ADD18R,0.335275X0.015238*%
%ADD19R,1.402075X0.015238*%
%ADD20R,0.365756X0.015238*%
%ADD21R,1.417319X0.015238*%
%ADD22R,0.381000X0.015238*%
%ADD23R,1.447800X0.015238*%
%ADD24R,0.396238X0.015238*%
%ADD25R,1.463037X0.015238*%
%ADD26R,0.411475X0.015238*%
%ADD27R,1.478275X0.015238*%
%ADD28R,0.426719X0.015238*%
%ADD29R,1.493519X0.015238*%
%ADD30R,0.441956X0.015238*%
%ADD31R,1.508756X0.015238*%
%ADD32R,0.457200X0.015238*%
%ADD33R,1.524000X0.015238*%
%ADD34R,0.472438X0.015238*%
%ADD35R,1.539238X0.015238*%
%ADD36R,0.487675X0.015238*%
%ADD37R,1.554475X0.015238*%
%ADD38R,0.502919X0.015238*%
%ADD39R,1.569719X0.015238*%
%ADD40R,0.518156X0.015238*%
%ADD41R,1.584956X0.015238*%
%ADD42R,0.533400X0.015238*%
%ADD43R,1.600200X0.015238*%
%ADD44R,0.548638X0.015238*%
%ADD45R,1.615438X0.015238*%
%ADD46R,0.563875X0.015238*%
%ADD47R,1.630675X0.015238*%
%ADD48R,0.579119X0.015238*%
%ADD49R,1.645919X0.015238*%
%ADD50R,0.594356X0.015238*%
%ADD51R,1.661156X0.015238*%
%ADD52R,0.609600X0.015238*%
%ADD53R,1.676400X0.015238*%
%ADD54R,0.624838X0.015238*%
%ADD55R,1.691638X0.015238*%
%ADD56R,0.640075X0.015238*%
%ADD57R,1.706875X0.015238*%
%ADD58R,0.655319X0.015238*%
%ADD59R,1.722119X0.015238*%
%ADD60R,0.670556X0.015238*%
%ADD61R,1.737356X0.015238*%
%ADD62R,0.685800X0.015238*%
%ADD63R,1.752600X0.015238*%
%ADD64R,0.701037X0.015238*%
%ADD65R,0.716275X0.015238*%
%ADD66R,0.731519X0.015238*%
%ADD67R,1.767838X0.015238*%
%ADD68R,1.783075X0.015238*%
%ADD69R,0.746756X0.015238*%
%ADD70R,1.798319X0.015238*%
%ADD71R,0.030481X0.015238*%
%ADD72R,0.762000X0.015238*%
%ADD73R,0.807719X0.015238*%
%ADD74R,0.868681X0.015238*%
%ADD75R,0.777238X0.015238*%
%ADD76R,0.853438X0.015238*%
%ADD77R,0.838200X0.015238*%
%ADD78R,0.792475X0.015238*%
%ADD79R,0.822963X0.015238*%
%ADD80R,0.822956X0.015238*%
%ADD81R,0.868675X0.015238*%
%ADD82R,0.883919X0.015238*%
%ADD83R,0.899156X0.015238*%
%ADD84R,0.914400X0.015238*%
%ADD85R,0.929638X0.015238*%
%ADD86R,0.944875X0.015238*%
%ADD87R,0.960119X0.015238*%
%ADD88R,0.975356X0.015238*%
%ADD89R,0.990600X0.015238*%
%ADD90R,1.005837X0.015238*%
%ADD91R,1.021075X0.015238*%
%ADD92R,1.036319X0.015238*%
%ADD93R,1.051556X0.015238*%
%ADD94R,1.066800X0.015238*%
%ADD95R,1.082037X0.015238*%
%ADD96R,1.097275X0.015238*%
%ADD97R,1.112519X0.015238*%
%ADD98R,1.127756X0.015238*%
%ADD99R,1.143000X0.015238*%
%ADD100R,1.158238X0.015238*%
%ADD101R,1.173475X0.015238*%
%ADD102R,1.188719X0.015238*%
%ADD103R,1.203956X0.015238*%
%ADD104R,1.219200X0.015238*%
%ADD105R,1.234438X0.015238*%
%ADD106R,1.249675X0.015238*%
%ADD107R,1.264919X0.015238*%
%ADD108R,1.280156X0.015238*%
%ADD109R,1.295400X0.015238*%
%ADD110R,1.325875X0.015238*%
%ADD111R,0.670563X0.015238*%
%ADD112R,1.341119X0.015238*%
%ADD113R,1.371600X0.015238*%
%ADD114R,1.386838X0.015238*%
%ADD115R,0.045719X0.015238*%
%ADD116R,0.060956X0.015238*%
%ADD117R,1.432556X0.015238*%
%ADD118R,0.106681X0.015238*%
%ADD119R,0.121919X0.015238*%
%ADD120R,0.152400X0.015238*%
%ADD121R,0.182875X0.015238*%
%ADD122R,0.030475X0.015238*%
%ADD123R,0.213363X0.015238*%
%ADD124R,0.076200X0.015238*%
%ADD125R,0.320038X0.015238*%
%ADD126R,0.243838X0.015238*%
%ADD127R,0.106675X0.015238*%
%ADD128R,0.274319X0.015238*%
%ADD129R,0.259081X0.015238*%
%ADD130R,0.198119X0.015238*%
%ADD131R,0.228600X0.015238*%


D10*
X157988Y64262D02*
X157988Y80518D01*
X150763Y80518D01*
X150763Y73293D02*
X157988Y73293D01*
X141518Y80518D02*
X141518Y64262D01*
X146034Y80518D02*
X137003Y80518D01*
X130924Y80518D02*
X130924Y64262D01*
X130924Y80518D02*
X126408Y80518D01*
X126277Y80516D01*
X126145Y80510D01*
X126014Y80501D01*
X125884Y80487D01*
X125753Y80470D01*
X125624Y80449D01*
X125495Y80425D01*
X125367Y80396D01*
X125239Y80364D01*
X125113Y80328D01*
X124988Y80289D01*
X124863Y80246D01*
X124741Y80199D01*
X124619Y80149D01*
X124499Y80095D01*
X124381Y80038D01*
X124265Y79977D01*
X124150Y79913D01*
X124037Y79846D01*
X123926Y79775D01*
X123818Y79701D01*
X123711Y79624D01*
X123607Y79544D01*
X123505Y79461D01*
X123406Y79376D01*
X123309Y79287D01*
X123215Y79195D01*
X123123Y79101D01*
X123034Y79004D01*
X122949Y78905D01*
X122866Y78803D01*
X122786Y78699D01*
X122709Y78592D01*
X122635Y78484D01*
X122564Y78373D01*
X122497Y78260D01*
X122433Y78145D01*
X122372Y78029D01*
X122315Y77911D01*
X122261Y77791D01*
X122211Y77669D01*
X122164Y77547D01*
X122121Y77422D01*
X122082Y77297D01*
X122046Y77171D01*
X122014Y77043D01*
X121985Y76915D01*
X121961Y76786D01*
X121940Y76657D01*
X121923Y76526D01*
X121909Y76396D01*
X121900Y76265D01*
X121894Y76133D01*
X121892Y76002D01*
X121893Y76002D02*
X121893Y68778D01*
X121892Y68778D02*
X121894Y68647D01*
X121900Y68515D01*
X121909Y68384D01*
X121923Y68254D01*
X121940Y68123D01*
X121961Y67994D01*
X121985Y67865D01*
X122014Y67737D01*
X122046Y67609D01*
X122082Y67483D01*
X122121Y67358D01*
X122164Y67233D01*
X122211Y67111D01*
X122261Y66989D01*
X122315Y66869D01*
X122372Y66751D01*
X122433Y66635D01*
X122497Y66520D01*
X122564Y66407D01*
X122635Y66296D01*
X122709Y66188D01*
X122786Y66081D01*
X122866Y65977D01*
X122949Y65875D01*
X123034Y65776D01*
X123123Y65679D01*
X123215Y65585D01*
X123309Y65493D01*
X123406Y65404D01*
X123505Y65319D01*
X123607Y65236D01*
X123711Y65156D01*
X123818Y65079D01*
X123926Y65005D01*
X124037Y64934D01*
X124150Y64867D01*
X124265Y64803D01*
X124381Y64742D01*
X124499Y64685D01*
X124619Y64631D01*
X124741Y64581D01*
X124863Y64534D01*
X124988Y64491D01*
X125113Y64452D01*
X125239Y64416D01*
X125367Y64384D01*
X125495Y64355D01*
X125624Y64331D01*
X125753Y64310D01*
X125884Y64293D01*
X126014Y64279D01*
X126145Y64270D01*
X126277Y64264D01*
X126408Y64262D01*
X130924Y64262D01*
X113382Y64262D02*
X113382Y80518D01*
X115188Y64262D02*
X111576Y64262D01*
X111576Y80518D02*
X115188Y80518D01*
X106053Y62456D02*
X98828Y62456D01*
X88372Y64262D02*
X93791Y80518D01*
X82954Y80518D02*
X88372Y64262D01*
X77256Y76906D02*
X72741Y80518D01*
X72741Y64262D01*
X77256Y64262D02*
X68225Y64262D01*
X-33528Y52896D02*
X-33528Y89980D01*
X33528Y89980D01*
X33528Y52896D01*
X-33528Y52896D01*
D11*
X-18662Y28898D02*
X-18662Y23578D01*
X-18664Y23489D01*
X-18670Y23400D01*
X-18680Y23311D01*
X-18693Y23223D01*
X-18710Y23135D01*
X-18732Y23048D01*
X-18757Y22963D01*
X-18785Y22878D01*
X-18818Y22795D01*
X-18854Y22713D01*
X-18893Y22633D01*
X-18936Y22555D01*
X-18982Y22479D01*
X-19032Y22404D01*
X-19085Y22332D01*
X-19141Y22263D01*
X-19200Y22196D01*
X-19261Y22131D01*
X-19326Y22070D01*
X-19393Y22011D01*
X-19462Y21955D01*
X-19534Y21902D01*
X-19609Y21852D01*
X-19685Y21806D01*
X-19763Y21763D01*
X-19843Y21724D01*
X-19925Y21688D01*
X-20008Y21655D01*
X-20093Y21627D01*
X-20178Y21602D01*
X-20265Y21580D01*
X-20353Y21563D01*
X-20441Y21550D01*
X-20530Y21540D01*
X-20619Y21534D01*
X-20708Y21532D01*
X-20797Y21534D01*
X-20886Y21540D01*
X-20975Y21550D01*
X-21063Y21563D01*
X-21151Y21580D01*
X-21238Y21602D01*
X-21323Y21627D01*
X-21408Y21655D01*
X-21491Y21688D01*
X-21573Y21724D01*
X-21653Y21763D01*
X-21731Y21806D01*
X-21807Y21852D01*
X-21882Y21902D01*
X-21954Y21955D01*
X-22023Y22011D01*
X-22090Y22070D01*
X-22155Y22131D01*
X-22216Y22196D01*
X-22275Y22263D01*
X-22331Y22332D01*
X-22384Y22404D01*
X-22434Y22479D01*
X-22480Y22555D01*
X-22523Y22633D01*
X-22562Y22713D01*
X-22598Y22795D01*
X-22631Y22878D01*
X-22659Y22963D01*
X-22684Y23048D01*
X-22706Y23135D01*
X-22723Y23223D01*
X-22736Y23311D01*
X-22746Y23400D01*
X-22752Y23489D01*
X-22754Y23578D01*
X-22754Y28898D01*
X-26221Y27261D02*
X-28267Y28898D01*
X-28267Y21532D01*
X-26221Y21532D02*
X-30313Y21532D01*
X-45657Y21117D02*
X-45657Y19480D01*
X-45655Y19402D01*
X-45650Y19324D01*
X-45640Y19247D01*
X-45627Y19170D01*
X-45611Y19094D01*
X-45591Y19019D01*
X-45567Y18945D01*
X-45540Y18872D01*
X-45509Y18800D01*
X-45475Y18730D01*
X-45438Y18662D01*
X-45397Y18595D01*
X-45353Y18530D01*
X-45307Y18468D01*
X-45257Y18408D01*
X-45205Y18350D01*
X-45150Y18295D01*
X-45092Y18243D01*
X-45032Y18193D01*
X-44970Y18147D01*
X-44905Y18103D01*
X-44839Y18062D01*
X-44770Y18025D01*
X-44700Y17991D01*
X-44628Y17960D01*
X-44555Y17933D01*
X-44481Y17909D01*
X-44406Y17889D01*
X-44330Y17873D01*
X-44253Y17860D01*
X-44176Y17850D01*
X-44098Y17845D01*
X-44020Y17843D01*
X-44020Y17844D02*
X-39927Y17844D01*
X-39927Y17843D02*
X-39847Y17845D01*
X-39767Y17851D01*
X-39687Y17861D01*
X-39608Y17874D01*
X-39529Y17892D01*
X-39452Y17913D01*
X-39376Y17939D01*
X-39301Y17968D01*
X-39227Y18000D01*
X-39155Y18036D01*
X-39085Y18076D01*
X-39018Y18119D01*
X-38952Y18165D01*
X-38889Y18215D01*
X-38828Y18267D01*
X-38769Y18322D01*
X-38714Y18381D01*
X-38662Y18441D01*
X-38612Y18505D01*
X-38566Y18570D01*
X-38523Y18638D01*
X-38483Y18708D01*
X-38447Y18780D01*
X-38415Y18854D01*
X-38386Y18928D01*
X-38361Y19005D01*
X-38339Y19082D01*
X-38321Y19161D01*
X-38308Y19240D01*
X-38298Y19319D01*
X-38292Y19400D01*
X-38290Y19480D01*
X-38291Y19480D02*
X-38291Y21117D01*
X-39927Y23963D02*
X-38291Y26009D01*
X-45657Y26009D01*
X-45657Y23963D02*
X-45657Y28055D01*
D10*
X35865Y29058D02*
X55994Y29058D01*
D12*
X46038Y45911D02*
X46038Y52515D01*
D11*
X39878Y16494D02*
X39878Y14857D01*
X39880Y14779D01*
X39885Y14701D01*
X39895Y14624D01*
X39908Y14547D01*
X39924Y14471D01*
X39944Y14396D01*
X39968Y14322D01*
X39995Y14249D01*
X40026Y14177D01*
X40060Y14107D01*
X40097Y14039D01*
X40138Y13972D01*
X40182Y13907D01*
X40228Y13845D01*
X40278Y13785D01*
X40330Y13727D01*
X40385Y13672D01*
X40443Y13620D01*
X40503Y13570D01*
X40565Y13524D01*
X40630Y13480D01*
X40697Y13439D01*
X40765Y13402D01*
X40835Y13368D01*
X40907Y13337D01*
X40980Y13310D01*
X41054Y13286D01*
X41129Y13266D01*
X41205Y13250D01*
X41282Y13237D01*
X41359Y13227D01*
X41437Y13222D01*
X41515Y13220D01*
X45607Y13220D01*
X45685Y13222D01*
X45763Y13227D01*
X45840Y13237D01*
X45917Y13250D01*
X45993Y13266D01*
X46068Y13286D01*
X46142Y13310D01*
X46215Y13337D01*
X46287Y13368D01*
X46357Y13402D01*
X46426Y13439D01*
X46492Y13480D01*
X46557Y13524D01*
X46619Y13570D01*
X46679Y13620D01*
X46737Y13672D01*
X46792Y13727D01*
X46844Y13785D01*
X46894Y13845D01*
X46940Y13907D01*
X46984Y13972D01*
X47025Y14039D01*
X47062Y14107D01*
X47096Y14177D01*
X47127Y14249D01*
X47154Y14322D01*
X47178Y14396D01*
X47198Y14471D01*
X47214Y14547D01*
X47227Y14624D01*
X47237Y14701D01*
X47242Y14779D01*
X47244Y14857D01*
X47244Y16494D01*
X47245Y21590D02*
X47243Y21675D01*
X47237Y21760D01*
X47227Y21844D01*
X47214Y21928D01*
X47196Y22012D01*
X47175Y22094D01*
X47150Y22175D01*
X47121Y22255D01*
X47088Y22334D01*
X47052Y22411D01*
X47012Y22486D01*
X46969Y22560D01*
X46923Y22631D01*
X46873Y22700D01*
X46820Y22767D01*
X46764Y22831D01*
X46705Y22892D01*
X46644Y22951D01*
X46580Y23007D01*
X46513Y23060D01*
X46444Y23110D01*
X46373Y23156D01*
X46299Y23199D01*
X46224Y23239D01*
X46147Y23275D01*
X46068Y23308D01*
X45988Y23337D01*
X45907Y23362D01*
X45825Y23383D01*
X45741Y23401D01*
X45657Y23414D01*
X45573Y23424D01*
X45488Y23430D01*
X45403Y23432D01*
X47244Y21590D02*
X47242Y21494D01*
X47236Y21398D01*
X47226Y21303D01*
X47213Y21208D01*
X47195Y21113D01*
X47174Y21020D01*
X47149Y20927D01*
X47120Y20836D01*
X47088Y20745D01*
X47052Y20656D01*
X47012Y20569D01*
X46969Y20483D01*
X46923Y20399D01*
X46873Y20317D01*
X46819Y20237D01*
X46763Y20160D01*
X46703Y20085D01*
X46641Y20012D01*
X46575Y19942D01*
X46507Y19874D01*
X46436Y19809D01*
X46363Y19748D01*
X46287Y19689D01*
X46208Y19633D01*
X46128Y19581D01*
X46045Y19532D01*
X45961Y19486D01*
X45875Y19444D01*
X45787Y19406D01*
X45698Y19371D01*
X45607Y19339D01*
X43971Y22818D02*
X44030Y22878D01*
X44092Y22935D01*
X44156Y22990D01*
X44223Y23041D01*
X44292Y23090D01*
X44362Y23136D01*
X44435Y23179D01*
X44509Y23219D01*
X44585Y23255D01*
X44663Y23288D01*
X44742Y23318D01*
X44822Y23345D01*
X44903Y23368D01*
X44985Y23387D01*
X45067Y23403D01*
X45151Y23416D01*
X45235Y23425D01*
X45319Y23430D01*
X45403Y23432D01*
X43970Y22818D02*
X39878Y19339D01*
X39878Y23432D01*
D12*
X-104775Y30036D02*
X-104775Y36640D01*
D11*
X-94869Y29055D02*
X-94869Y27418D01*
X-94867Y27340D01*
X-94862Y27262D01*
X-94852Y27185D01*
X-94839Y27108D01*
X-94823Y27032D01*
X-94803Y26957D01*
X-94779Y26883D01*
X-94752Y26810D01*
X-94721Y26738D01*
X-94687Y26668D01*
X-94650Y26600D01*
X-94609Y26533D01*
X-94565Y26468D01*
X-94519Y26406D01*
X-94469Y26346D01*
X-94417Y26288D01*
X-94362Y26233D01*
X-94304Y26181D01*
X-94244Y26131D01*
X-94182Y26085D01*
X-94117Y26041D01*
X-94051Y26000D01*
X-93982Y25963D01*
X-93912Y25929D01*
X-93840Y25898D01*
X-93767Y25871D01*
X-93693Y25847D01*
X-93618Y25827D01*
X-93542Y25811D01*
X-93465Y25798D01*
X-93388Y25788D01*
X-93310Y25783D01*
X-93232Y25781D01*
X-89140Y25781D01*
X-89060Y25783D01*
X-88980Y25789D01*
X-88900Y25799D01*
X-88821Y25812D01*
X-88742Y25830D01*
X-88665Y25851D01*
X-88589Y25877D01*
X-88514Y25906D01*
X-88440Y25938D01*
X-88368Y25974D01*
X-88298Y26014D01*
X-88231Y26057D01*
X-88165Y26103D01*
X-88102Y26153D01*
X-88041Y26205D01*
X-87982Y26260D01*
X-87927Y26319D01*
X-87875Y26379D01*
X-87825Y26443D01*
X-87779Y26508D01*
X-87736Y26576D01*
X-87696Y26646D01*
X-87660Y26718D01*
X-87628Y26792D01*
X-87599Y26866D01*
X-87574Y26943D01*
X-87552Y27020D01*
X-87534Y27099D01*
X-87521Y27178D01*
X-87511Y27257D01*
X-87505Y27338D01*
X-87503Y27418D01*
X-87503Y29055D01*
X-89140Y31900D02*
X-87503Y33946D01*
X-94869Y33946D01*
X-94869Y31900D02*
X-94869Y35992D01*
X-91186Y39216D02*
X-91033Y39218D01*
X-90880Y39224D01*
X-90728Y39233D01*
X-90575Y39247D01*
X-90423Y39264D01*
X-90272Y39285D01*
X-90121Y39310D01*
X-89971Y39339D01*
X-89821Y39371D01*
X-89673Y39408D01*
X-89525Y39448D01*
X-89378Y39491D01*
X-89233Y39539D01*
X-89089Y39590D01*
X-88946Y39644D01*
X-88804Y39703D01*
X-88665Y39764D01*
X-88526Y39830D01*
X-88526Y39829D02*
X-88456Y39855D01*
X-88386Y39885D01*
X-88319Y39918D01*
X-88253Y39954D01*
X-88189Y39993D01*
X-88127Y40036D01*
X-88068Y40082D01*
X-88010Y40130D01*
X-87956Y40181D01*
X-87903Y40235D01*
X-87854Y40292D01*
X-87807Y40351D01*
X-87764Y40412D01*
X-87723Y40475D01*
X-87686Y40540D01*
X-87651Y40607D01*
X-87621Y40676D01*
X-87593Y40746D01*
X-87570Y40817D01*
X-87549Y40889D01*
X-87533Y40962D01*
X-87520Y41036D01*
X-87510Y41111D01*
X-87505Y41186D01*
X-87503Y41261D01*
X-87505Y41336D01*
X-87510Y41411D01*
X-87520Y41486D01*
X-87533Y41560D01*
X-87549Y41633D01*
X-87570Y41705D01*
X-87593Y41776D01*
X-87621Y41846D01*
X-87651Y41915D01*
X-87686Y41982D01*
X-87723Y42047D01*
X-87764Y42110D01*
X-87807Y42171D01*
X-87854Y42230D01*
X-87903Y42287D01*
X-87956Y42341D01*
X-88010Y42392D01*
X-88068Y42441D01*
X-88127Y42486D01*
X-88189Y42529D01*
X-88253Y42568D01*
X-88319Y42605D01*
X-88387Y42637D01*
X-88456Y42667D01*
X-88526Y42693D01*
X-88664Y42758D01*
X-88804Y42820D01*
X-88946Y42878D01*
X-89089Y42933D01*
X-89233Y42984D01*
X-89378Y43032D01*
X-89525Y43075D01*
X-89672Y43115D01*
X-89821Y43152D01*
X-89971Y43184D01*
X-90121Y43213D01*
X-90272Y43238D01*
X-90423Y43259D01*
X-90575Y43276D01*
X-90728Y43290D01*
X-90880Y43299D01*
X-91033Y43305D01*
X-91186Y43307D01*
X-91186Y39216D02*
X-91339Y39218D01*
X-91492Y39224D01*
X-91644Y39233D01*
X-91797Y39247D01*
X-91949Y39264D01*
X-92100Y39285D01*
X-92251Y39310D01*
X-92401Y39339D01*
X-92551Y39371D01*
X-92699Y39408D01*
X-92847Y39448D01*
X-92994Y39491D01*
X-93139Y39539D01*
X-93283Y39590D01*
X-93426Y39644D01*
X-93568Y39703D01*
X-93707Y39764D01*
X-93846Y39830D01*
X-93846Y39829D02*
X-93917Y39855D01*
X-93986Y39885D01*
X-94053Y39918D01*
X-94119Y39954D01*
X-94183Y39993D01*
X-94245Y40036D01*
X-94304Y40082D01*
X-94362Y40130D01*
X-94416Y40181D01*
X-94469Y40235D01*
X-94518Y40292D01*
X-94565Y40351D01*
X-94608Y40412D01*
X-94649Y40475D01*
X-94686Y40540D01*
X-94721Y40607D01*
X-94751Y40676D01*
X-94779Y40746D01*
X-94802Y40817D01*
X-94823Y40889D01*
X-94839Y40962D01*
X-94852Y41036D01*
X-94862Y41111D01*
X-94867Y41186D01*
X-94869Y41261D01*
X-93846Y42693D02*
X-93708Y42758D01*
X-93568Y42820D01*
X-93426Y42878D01*
X-93283Y42933D01*
X-93139Y42984D01*
X-92994Y43032D01*
X-92847Y43075D01*
X-92700Y43115D01*
X-92551Y43152D01*
X-92401Y43184D01*
X-92251Y43213D01*
X-92100Y43238D01*
X-91949Y43259D01*
X-91797Y43276D01*
X-91644Y43290D01*
X-91492Y43299D01*
X-91339Y43305D01*
X-91186Y43307D01*
X-93846Y42693D02*
X-93916Y42667D01*
X-93986Y42637D01*
X-94053Y42604D01*
X-94119Y42568D01*
X-94183Y42529D01*
X-94245Y42486D01*
X-94304Y42440D01*
X-94362Y42392D01*
X-94416Y42341D01*
X-94469Y42287D01*
X-94518Y42230D01*
X-94565Y42171D01*
X-94608Y42110D01*
X-94649Y42047D01*
X-94686Y41982D01*
X-94721Y41915D01*
X-94751Y41846D01*
X-94779Y41776D01*
X-94802Y41705D01*
X-94823Y41633D01*
X-94839Y41560D01*
X-94852Y41486D01*
X-94862Y41411D01*
X-94867Y41336D01*
X-94869Y41261D01*
X-93232Y39625D02*
X-89140Y42898D01*
D13*
X111570Y17615D03*
D14*
X100216Y17615D03*
D15*
X113398Y17767D03*
X110198Y17767D03*
X93282Y17767D03*
D16*
X111798Y17767D03*
D17*
X100140Y17767D03*
D15*
X113703Y17920D03*
X110198Y17920D03*
D18*
X111951Y17920D03*
D19*
X99911Y17920D03*
D15*
X110198Y18072D03*
X92672Y18072D03*
D20*
X112103Y18072D03*
D21*
X99835Y18072D03*
D15*
X110198Y18224D03*
D22*
X112179Y18224D03*
D23*
X99682Y18224D03*
D15*
X114313Y18377D03*
X110198Y18377D03*
D24*
X112255Y18377D03*
D25*
X99606Y18377D03*
D15*
X110198Y18529D03*
D26*
X112332Y18529D03*
D27*
X99530Y18529D03*
D15*
X110198Y18682D03*
X92062Y18682D03*
D28*
X112408Y18682D03*
D27*
X99530Y18682D03*
D15*
X114618Y18834D03*
X110198Y18834D03*
D28*
X112408Y18834D03*
D29*
X99454Y18834D03*
D15*
X110198Y18986D03*
D30*
X112484Y18986D03*
D31*
X99378Y18986D03*
D15*
X110198Y19139D03*
X91758Y19139D03*
D32*
X112560Y19139D03*
D31*
X99378Y19139D03*
D15*
X114922Y19291D03*
X110198Y19291D03*
D32*
X112560Y19291D03*
D33*
X99301Y19291D03*
D15*
X110198Y19444D03*
X91605Y19444D03*
D34*
X112636Y19444D03*
D33*
X99301Y19444D03*
D15*
X115075Y19596D03*
X110198Y19596D03*
D34*
X112636Y19596D03*
D35*
X99225Y19596D03*
D15*
X110198Y19748D03*
D36*
X112713Y19748D03*
D37*
X99149Y19748D03*
D15*
X110198Y19901D03*
X91300Y19901D03*
D38*
X112789Y19901D03*
D37*
X99149Y19901D03*
D15*
X110198Y20053D03*
D38*
X112789Y20053D03*
D39*
X99073Y20053D03*
D15*
X110198Y20206D03*
X91148Y20206D03*
D40*
X112865Y20206D03*
D39*
X99073Y20206D03*
D15*
X115532Y20358D03*
X110198Y20358D03*
D40*
X112865Y20358D03*
D41*
X98997Y20358D03*
D15*
X110198Y20510D03*
X90996Y20510D03*
D42*
X112941Y20510D03*
D41*
X98997Y20510D03*
D15*
X115684Y20663D03*
X110198Y20663D03*
D42*
X112941Y20663D03*
D43*
X98920Y20663D03*
D15*
X110198Y20815D03*
D44*
X113017Y20815D03*
D45*
X98844Y20815D03*
D15*
X110198Y20968D03*
X90691Y20968D03*
D46*
X113094Y20968D03*
D45*
X98844Y20968D03*
D15*
X115989Y21120D03*
X110198Y21120D03*
D46*
X113094Y21120D03*
D47*
X98768Y21120D03*
D15*
X110198Y21272D03*
X90538Y21272D03*
D48*
X113170Y21272D03*
D47*
X98768Y21272D03*
D15*
X116142Y21425D03*
X110198Y21425D03*
D48*
X113170Y21425D03*
D49*
X98692Y21425D03*
D15*
X110198Y21577D03*
D50*
X113246Y21577D03*
D51*
X98616Y21577D03*
D15*
X116294Y21730D03*
X110198Y21730D03*
D50*
X113246Y21730D03*
D51*
X98616Y21730D03*
D15*
X110198Y21882D03*
D52*
X113322Y21882D03*
D53*
X98539Y21882D03*
D15*
X110198Y22034D03*
X90081Y22034D03*
D54*
X113398Y22034D03*
D53*
X98539Y22034D03*
D15*
X116599Y22187D03*
X110198Y22187D03*
D54*
X113398Y22187D03*
D55*
X98463Y22187D03*
D15*
X110198Y22339D03*
X89929Y22339D03*
D56*
X113475Y22339D03*
D55*
X98463Y22339D03*
D15*
X116751Y22492D03*
X110198Y22492D03*
D56*
X113475Y22492D03*
D57*
X98387Y22492D03*
D15*
X110198Y22644D03*
D58*
X113551Y22644D03*
D59*
X98311Y22644D03*
D15*
X116904Y22796D03*
X110198Y22796D03*
D58*
X113551Y22796D03*
D59*
X98311Y22796D03*
D15*
X110198Y22949D03*
D60*
X113627Y22949D03*
D61*
X98235Y22949D03*
D15*
X110198Y23101D03*
X89472Y23101D03*
D62*
X113703Y23101D03*
D61*
X98235Y23101D03*
D15*
X117208Y23254D03*
X110198Y23254D03*
D62*
X113703Y23254D03*
D63*
X98158Y23254D03*
D15*
X110198Y23406D03*
X106845Y23406D03*
X89319Y23406D03*
D64*
X113779Y23406D03*
D61*
X98082Y23406D03*
D15*
X117361Y23558D03*
X110198Y23558D03*
X106845Y23558D03*
D64*
X113779Y23558D03*
D63*
X98006Y23558D03*
D15*
X110198Y23711D03*
X106845Y23711D03*
X89167Y23711D03*
D65*
X113856Y23711D03*
D63*
X98006Y23711D03*
D15*
X110198Y23863D03*
X106845Y23863D03*
D66*
X113932Y23863D03*
D67*
X97930Y23863D03*
D15*
X110198Y24016D03*
X106845Y24016D03*
D66*
X113932Y24016D03*
D68*
X97854Y24016D03*
D15*
X110198Y24168D03*
X106845Y24168D03*
X88862Y24168D03*
D69*
X114008Y24168D03*
D68*
X97854Y24168D03*
D15*
X117818Y24320D03*
X110198Y24320D03*
X106845Y24320D03*
D69*
X114008Y24320D03*
D70*
X97777Y24320D03*
D15*
X110198Y24473D03*
X106845Y24473D03*
D71*
X98539Y24473D03*
D15*
X97549Y24473D03*
X88710Y24473D03*
D72*
X114084Y24473D03*
D73*
X102730Y24473D03*
D74*
X93129Y24473D03*
D15*
X117970Y24625D03*
X110198Y24625D03*
X106845Y24625D03*
X98920Y24625D03*
X97244Y24625D03*
D72*
X114084Y24625D03*
D75*
X102883Y24625D03*
D76*
X92901Y24625D03*
D15*
X110198Y24778D03*
X106845Y24778D03*
X99073Y24778D03*
X88557Y24778D03*
D75*
X114160Y24778D03*
D72*
X102959Y24778D03*
D77*
X92824Y24778D03*
D15*
X110198Y24930D03*
X106845Y24930D03*
X96787Y24930D03*
X88405Y24930D03*
D78*
X114237Y24930D03*
D69*
X103035Y24930D03*
D79*
X92596Y24930D03*
D15*
X118275Y25082D03*
X110198Y25082D03*
X106845Y25082D03*
X99378Y25082D03*
D78*
X114237Y25082D03*
D66*
X103111Y25082D03*
D77*
X92520Y25082D03*
D15*
X110198Y25235D03*
X106845Y25235D03*
X88252Y25235D03*
D73*
X114313Y25235D03*
D66*
X103111Y25235D03*
D80*
X92443Y25235D03*
D15*
X118428Y25387D03*
X110198Y25387D03*
X106845Y25387D03*
D73*
X114313Y25387D03*
D65*
X103188Y25387D03*
D77*
X92367Y25387D03*
D15*
X110198Y25540D03*
X106845Y25540D03*
X96482Y25540D03*
X88100Y25540D03*
D80*
X114389Y25540D03*
D65*
X103188Y25540D03*
D80*
X92291Y25540D03*
D15*
X118580Y25692D03*
X110198Y25692D03*
X106845Y25692D03*
X99682Y25692D03*
D80*
X114389Y25692D03*
D64*
X103264Y25692D03*
D77*
X92215Y25692D03*
D15*
X110198Y25844D03*
X106845Y25844D03*
X99682Y25844D03*
X87948Y25844D03*
D77*
X114465Y25844D03*
D64*
X103264Y25844D03*
D77*
X92215Y25844D03*
D15*
X110198Y25997D03*
X106845Y25997D03*
X99682Y25997D03*
D76*
X114541Y25997D03*
D64*
X103264Y25997D03*
D76*
X92139Y25997D03*
D15*
X118885Y26149D03*
X110198Y26149D03*
X106845Y26149D03*
X99682Y26149D03*
X87795Y26149D03*
D76*
X114541Y26149D03*
D64*
X103264Y26149D03*
D76*
X92139Y26149D03*
D15*
X110198Y26302D03*
X106845Y26302D03*
X99682Y26302D03*
D81*
X114618Y26302D03*
D64*
X103264Y26302D03*
D74*
X92062Y26302D03*
D15*
X119037Y26454D03*
X110198Y26454D03*
X106845Y26454D03*
X99682Y26454D03*
D81*
X114618Y26454D03*
D64*
X103264Y26454D03*
D82*
X91986Y26454D03*
D15*
X110198Y26606D03*
X106845Y26606D03*
X99682Y26606D03*
X87490Y26606D03*
D82*
X114694Y26606D03*
D64*
X103264Y26606D03*
D82*
X91986Y26606D03*
D15*
X119190Y26759D03*
X110198Y26759D03*
X106845Y26759D03*
X99682Y26759D03*
D82*
X114694Y26759D03*
D64*
X103264Y26759D03*
D83*
X91910Y26759D03*
D15*
X110198Y26911D03*
X106845Y26911D03*
X99682Y26911D03*
X87338Y26911D03*
D83*
X114770Y26911D03*
D64*
X103264Y26911D03*
D83*
X91910Y26911D03*
D15*
X110198Y27064D03*
X106845Y27064D03*
X99682Y27064D03*
D84*
X114846Y27064D03*
D64*
X103264Y27064D03*
D84*
X91834Y27064D03*
D15*
X119494Y27216D03*
X110198Y27216D03*
X106845Y27216D03*
X99682Y27216D03*
X96330Y27216D03*
X87186Y27216D03*
D84*
X114846Y27216D03*
D64*
X103264Y27216D03*
D83*
X91758Y27216D03*
D15*
X110198Y27368D03*
X106845Y27368D03*
X99682Y27368D03*
X96330Y27368D03*
D85*
X114922Y27368D03*
D64*
X103264Y27368D03*
D84*
X91681Y27368D03*
D15*
X119647Y27521D03*
X110198Y27521D03*
X106845Y27521D03*
X99682Y27521D03*
X96330Y27521D03*
D85*
X114922Y27521D03*
D64*
X103264Y27521D03*
D85*
X91605Y27521D03*
D15*
X110198Y27673D03*
X106845Y27673D03*
X99682Y27673D03*
X96330Y27673D03*
X86881Y27673D03*
D86*
X114999Y27673D03*
D64*
X103264Y27673D03*
D85*
X91605Y27673D03*
D15*
X119799Y27826D03*
X110198Y27826D03*
X106845Y27826D03*
X99682Y27826D03*
X96330Y27826D03*
D86*
X114999Y27826D03*
D64*
X103264Y27826D03*
D86*
X91529Y27826D03*
D15*
X110198Y27978D03*
X106845Y27978D03*
X99682Y27978D03*
X96330Y27978D03*
X86728Y27978D03*
D87*
X115075Y27978D03*
D64*
X103264Y27978D03*
D86*
X91529Y27978D03*
D15*
X110198Y28130D03*
X106845Y28130D03*
X99682Y28130D03*
X96330Y28130D03*
D88*
X115151Y28130D03*
D64*
X103264Y28130D03*
D87*
X91453Y28130D03*
D15*
X120104Y28283D03*
X110198Y28283D03*
X106845Y28283D03*
X96330Y28283D03*
D88*
X115151Y28283D03*
D64*
X103264Y28283D03*
D88*
X91377Y28283D03*
D15*
X110198Y28435D03*
X106845Y28435D03*
X96330Y28435D03*
X86424Y28435D03*
D89*
X115227Y28435D03*
D64*
X103264Y28435D03*
D88*
X91377Y28435D03*
D15*
X120256Y28588D03*
X110198Y28588D03*
X106845Y28588D03*
X96330Y28588D03*
D89*
X115227Y28588D03*
D64*
X103264Y28588D03*
D89*
X91300Y28588D03*
D15*
X110198Y28740D03*
X106845Y28740D03*
X96330Y28740D03*
X86271Y28740D03*
D90*
X115303Y28740D03*
D64*
X103264Y28740D03*
D89*
X91300Y28740D03*
D15*
X120409Y28892D03*
X110198Y28892D03*
X106845Y28892D03*
X96330Y28892D03*
D90*
X115303Y28892D03*
D64*
X103264Y28892D03*
D90*
X91224Y28892D03*
D15*
X110198Y29045D03*
X106845Y29045D03*
X96330Y29045D03*
X86119Y29045D03*
D91*
X115380Y29045D03*
D64*
X103264Y29045D03*
D90*
X91224Y29045D03*
D15*
X110198Y29197D03*
X106845Y29197D03*
X96330Y29197D03*
D92*
X115456Y29197D03*
D64*
X103264Y29197D03*
D91*
X91148Y29197D03*
D15*
X120714Y29350D03*
X110198Y29350D03*
X106845Y29350D03*
X96330Y29350D03*
D92*
X115456Y29350D03*
D64*
X103264Y29350D03*
D92*
X91072Y29350D03*
D15*
X110198Y29502D03*
X106845Y29502D03*
X96330Y29502D03*
X85814Y29502D03*
D93*
X115532Y29502D03*
D64*
X103264Y29502D03*
D92*
X91072Y29502D03*
D15*
X120866Y29654D03*
X110198Y29654D03*
X106845Y29654D03*
X96330Y29654D03*
D93*
X115532Y29654D03*
D64*
X103264Y29654D03*
D93*
X90996Y29654D03*
D15*
X110198Y29807D03*
X106845Y29807D03*
X96330Y29807D03*
X85662Y29807D03*
D94*
X115608Y29807D03*
D64*
X103264Y29807D03*
D93*
X90996Y29807D03*
D15*
X121018Y29959D03*
X110198Y29959D03*
X106845Y29959D03*
X96330Y29959D03*
D94*
X115608Y29959D03*
D64*
X103264Y29959D03*
D94*
X90919Y29959D03*
D15*
X110198Y30112D03*
X106845Y30112D03*
X96330Y30112D03*
X85509Y30112D03*
D95*
X115684Y30112D03*
D64*
X103264Y30112D03*
D94*
X90919Y30112D03*
D15*
X110198Y30264D03*
X106845Y30264D03*
X96330Y30264D03*
D96*
X115761Y30264D03*
D64*
X103264Y30264D03*
D95*
X90843Y30264D03*
D15*
X121323Y30416D03*
X110198Y30416D03*
X106845Y30416D03*
X96330Y30416D03*
D96*
X115761Y30416D03*
D64*
X103264Y30416D03*
D96*
X90767Y30416D03*
D15*
X110198Y30569D03*
X106845Y30569D03*
X96330Y30569D03*
X85204Y30569D03*
D97*
X115837Y30569D03*
D64*
X103264Y30569D03*
D96*
X90767Y30569D03*
D15*
X121476Y30721D03*
X110198Y30721D03*
X106845Y30721D03*
X96330Y30721D03*
D97*
X115837Y30721D03*
D64*
X103264Y30721D03*
D97*
X90691Y30721D03*
D15*
X110198Y30874D03*
X106845Y30874D03*
X96330Y30874D03*
X85052Y30874D03*
D98*
X115913Y30874D03*
D64*
X103264Y30874D03*
D97*
X90691Y30874D03*
D15*
X110198Y31026D03*
X106845Y31026D03*
X96330Y31026D03*
D99*
X115989Y31026D03*
D64*
X103264Y31026D03*
D98*
X90615Y31026D03*
D15*
X121780Y31178D03*
X110198Y31178D03*
X106845Y31178D03*
X96330Y31178D03*
X84900Y31178D03*
D99*
X115989Y31178D03*
D64*
X103264Y31178D03*
D98*
X90615Y31178D03*
D15*
X110198Y31331D03*
X106845Y31331D03*
X96330Y31331D03*
X84747Y31331D03*
D100*
X116065Y31331D03*
D64*
X103264Y31331D03*
D99*
X90538Y31331D03*
D15*
X121933Y31483D03*
X110198Y31483D03*
X106845Y31483D03*
X96330Y31483D03*
D100*
X116065Y31483D03*
D64*
X103264Y31483D03*
D100*
X90462Y31483D03*
D15*
X110198Y31636D03*
X106845Y31636D03*
X96330Y31636D03*
X84595Y31636D03*
D101*
X116142Y31636D03*
D64*
X103264Y31636D03*
D100*
X90462Y31636D03*
D15*
X122085Y31788D03*
X110198Y31788D03*
X106845Y31788D03*
X96330Y31788D03*
D101*
X116142Y31788D03*
D64*
X103264Y31788D03*
D101*
X90386Y31788D03*
D15*
X110198Y31940D03*
X106845Y31940D03*
X96330Y31940D03*
X84442Y31940D03*
D102*
X116218Y31940D03*
D64*
X103264Y31940D03*
D101*
X90386Y31940D03*
D15*
X110198Y32093D03*
X106845Y32093D03*
X96330Y32093D03*
D103*
X116294Y32093D03*
D64*
X103264Y32093D03*
D102*
X90310Y32093D03*
D15*
X122390Y32245D03*
X110198Y32245D03*
X106845Y32245D03*
X96330Y32245D03*
D103*
X116294Y32245D03*
D64*
X103264Y32245D03*
D103*
X90234Y32245D03*
D15*
X110198Y32398D03*
X106845Y32398D03*
X96330Y32398D03*
X84138Y32398D03*
D104*
X116370Y32398D03*
D64*
X103264Y32398D03*
D103*
X90234Y32398D03*
D15*
X122542Y32550D03*
X110198Y32550D03*
X106845Y32550D03*
X96330Y32550D03*
D104*
X116370Y32550D03*
D64*
X103264Y32550D03*
D104*
X90157Y32550D03*
D15*
X110198Y32702D03*
X106845Y32702D03*
X96330Y32702D03*
X83985Y32702D03*
D105*
X116446Y32702D03*
D64*
X103264Y32702D03*
D104*
X90157Y32702D03*
D15*
X122695Y32855D03*
X110198Y32855D03*
X106845Y32855D03*
X96330Y32855D03*
D105*
X116446Y32855D03*
D64*
X103264Y32855D03*
D105*
X90081Y32855D03*
D15*
X110198Y33007D03*
X106845Y33007D03*
X96330Y33007D03*
X83833Y33007D03*
D106*
X116523Y33007D03*
D64*
X103264Y33007D03*
D105*
X90081Y33007D03*
D15*
X110198Y33160D03*
X106845Y33160D03*
X96330Y33160D03*
D107*
X116599Y33160D03*
D64*
X103264Y33160D03*
D106*
X90005Y33160D03*
D15*
X123000Y33312D03*
X110198Y33312D03*
X106845Y33312D03*
X96330Y33312D03*
D107*
X116599Y33312D03*
D64*
X103264Y33312D03*
D107*
X89929Y33312D03*
D15*
X106845Y33464D03*
X96330Y33464D03*
X83528Y33464D03*
D108*
X116675Y33464D03*
D64*
X103264Y33464D03*
D107*
X89929Y33464D03*
D15*
X123152Y33617D03*
X106845Y33617D03*
X96330Y33617D03*
D108*
X116675Y33617D03*
D64*
X103264Y33617D03*
D108*
X89853Y33617D03*
D15*
X106845Y33769D03*
X96330Y33769D03*
X83376Y33769D03*
D109*
X116751Y33769D03*
D64*
X103264Y33769D03*
D108*
X89853Y33769D03*
D15*
X123304Y33922D03*
X106845Y33922D03*
X96330Y33922D03*
D109*
X116751Y33922D03*
D64*
X103264Y33922D03*
D109*
X89776Y33922D03*
D15*
X106845Y34074D03*
X96330Y34074D03*
X83223Y34074D03*
D14*
X116827Y34074D03*
D64*
X103264Y34074D03*
D109*
X89776Y34074D03*
D15*
X106693Y34226D03*
X99835Y34226D03*
X96330Y34226D03*
X83071Y34226D03*
D110*
X116904Y34226D03*
D111*
X103264Y34226D03*
D14*
X89700Y34226D03*
D15*
X123609Y34379D03*
X96330Y34379D03*
D110*
X116904Y34379D03*
X89624Y34379D03*
D15*
X96330Y34531D03*
X82918Y34531D03*
D112*
X116980Y34531D03*
D110*
X89624Y34531D03*
D15*
X123762Y34684D03*
X96330Y34684D03*
D112*
X116980Y34684D03*
X89548Y34684D03*
D15*
X96330Y34836D03*
X82766Y34836D03*
D17*
X117056Y34836D03*
D112*
X89548Y34836D03*
D15*
X123914Y34988D03*
X96330Y34988D03*
D17*
X117056Y34988D03*
X89472Y34988D03*
D15*
X96330Y35141D03*
X82614Y35141D03*
D113*
X117132Y35141D03*
D17*
X89472Y35141D03*
D15*
X124066Y35293D03*
X96330Y35293D03*
D113*
X117132Y35293D03*
X89395Y35293D03*
D15*
X124066Y35446D03*
X96330Y35446D03*
D113*
X117132Y35446D03*
X89395Y35446D03*
D15*
X96330Y35598D03*
D114*
X117208Y35598D03*
D113*
X89395Y35598D03*
D15*
X96330Y35750D03*
X82461Y35750D03*
D114*
X117208Y35750D03*
D113*
X89395Y35750D03*
D15*
X96330Y35903D03*
X82461Y35903D03*
D114*
X117208Y35903D03*
D113*
X89395Y35903D03*
D15*
X96330Y36055D03*
X82461Y36055D03*
D114*
X117208Y36055D03*
D113*
X89395Y36055D03*
D15*
X96330Y36208D03*
X82461Y36208D03*
D114*
X117208Y36208D03*
D113*
X89395Y36208D03*
D15*
X96330Y36360D03*
X82461Y36360D03*
D114*
X117208Y36360D03*
D113*
X89395Y36360D03*
D15*
X96330Y36512D03*
D114*
X117208Y36512D03*
D113*
X89395Y36512D03*
D15*
X124066Y36665D03*
X96330Y36665D03*
D113*
X117132Y36665D03*
X89395Y36665D03*
D15*
X96330Y36817D03*
X82614Y36817D03*
D113*
X117132Y36817D03*
D17*
X89472Y36817D03*
D15*
X96330Y36970D03*
X82614Y36970D03*
D113*
X117132Y36970D03*
D17*
X89472Y36970D03*
D15*
X123914Y37122D03*
X96330Y37122D03*
D17*
X117056Y37122D03*
X89472Y37122D03*
D15*
X96330Y37274D03*
X82766Y37274D03*
D17*
X117056Y37274D03*
D112*
X89548Y37274D03*
D15*
X123762Y37427D03*
X96330Y37427D03*
D112*
X116980Y37427D03*
X89548Y37427D03*
D15*
X96330Y37579D03*
D112*
X116980Y37579D03*
D110*
X89624Y37579D03*
D15*
X96330Y37732D03*
X83071Y37732D03*
D110*
X116904Y37732D03*
D14*
X89700Y37732D03*
D15*
X123457Y37884D03*
X96330Y37884D03*
D14*
X116827Y37884D03*
D64*
X103264Y37884D03*
D14*
X89700Y37884D03*
D15*
X106845Y38036D03*
X96330Y38036D03*
X83223Y38036D03*
D14*
X116827Y38036D03*
D64*
X103264Y38036D03*
D109*
X89776Y38036D03*
D15*
X123304Y38189D03*
X106845Y38189D03*
X96330Y38189D03*
D109*
X116751Y38189D03*
D64*
X103264Y38189D03*
D109*
X89776Y38189D03*
D15*
X106845Y38341D03*
X96330Y38341D03*
X83376Y38341D03*
D109*
X116751Y38341D03*
D64*
X103264Y38341D03*
D108*
X89853Y38341D03*
D15*
X123152Y38494D03*
X106845Y38494D03*
X96330Y38494D03*
X83528Y38494D03*
D108*
X116675Y38494D03*
D64*
X103264Y38494D03*
D107*
X89929Y38494D03*
D15*
X123000Y38646D03*
X106845Y38646D03*
X96330Y38646D03*
D107*
X116599Y38646D03*
D64*
X103264Y38646D03*
D107*
X89929Y38646D03*
D15*
X106845Y38798D03*
X96330Y38798D03*
X83680Y38798D03*
D107*
X116599Y38798D03*
D64*
X103264Y38798D03*
D106*
X90005Y38798D03*
D15*
X122847Y38951D03*
X106845Y38951D03*
X96330Y38951D03*
D106*
X116523Y38951D03*
D64*
X103264Y38951D03*
D106*
X90005Y38951D03*
D15*
X106845Y39103D03*
X96330Y39103D03*
X83833Y39103D03*
D106*
X116523Y39103D03*
D64*
X103264Y39103D03*
D105*
X90081Y39103D03*
D15*
X122695Y39256D03*
X106845Y39256D03*
X96330Y39256D03*
D105*
X116446Y39256D03*
D64*
X103264Y39256D03*
D105*
X90081Y39256D03*
D15*
X106845Y39408D03*
X96330Y39408D03*
X83985Y39408D03*
D105*
X116446Y39408D03*
D64*
X103264Y39408D03*
D104*
X90157Y39408D03*
D15*
X106845Y39560D03*
X96330Y39560D03*
X84138Y39560D03*
D104*
X116370Y39560D03*
D64*
X103264Y39560D03*
D103*
X90234Y39560D03*
D15*
X122390Y39713D03*
X106845Y39713D03*
X96330Y39713D03*
D103*
X116294Y39713D03*
D64*
X103264Y39713D03*
D103*
X90234Y39713D03*
D15*
X106845Y39865D03*
X96330Y39865D03*
X84290Y39865D03*
D103*
X116294Y39865D03*
D64*
X103264Y39865D03*
D102*
X90310Y39865D03*
D15*
X122238Y40018D03*
X106845Y40018D03*
X96330Y40018D03*
D102*
X116218Y40018D03*
D64*
X103264Y40018D03*
D102*
X90310Y40018D03*
D15*
X106845Y40170D03*
X96330Y40170D03*
X84442Y40170D03*
D102*
X116218Y40170D03*
D64*
X103264Y40170D03*
D101*
X90386Y40170D03*
D15*
X122085Y40322D03*
X106845Y40322D03*
X96330Y40322D03*
D101*
X116142Y40322D03*
D64*
X103264Y40322D03*
D101*
X90386Y40322D03*
D15*
X106845Y40475D03*
X96330Y40475D03*
D101*
X116142Y40475D03*
D64*
X103264Y40475D03*
D100*
X90462Y40475D03*
D15*
X106845Y40627D03*
X96330Y40627D03*
X84747Y40627D03*
D100*
X116065Y40627D03*
D64*
X103264Y40627D03*
D99*
X90538Y40627D03*
D15*
X121780Y40780D03*
X106845Y40780D03*
X96330Y40780D03*
D99*
X115989Y40780D03*
D64*
X103264Y40780D03*
D99*
X90538Y40780D03*
D15*
X106845Y40932D03*
X96330Y40932D03*
X84900Y40932D03*
D99*
X115989Y40932D03*
D64*
X103264Y40932D03*
D98*
X90615Y40932D03*
D15*
X121628Y41084D03*
X106845Y41084D03*
X96330Y41084D03*
D98*
X115913Y41084D03*
D64*
X103264Y41084D03*
D98*
X90615Y41084D03*
D15*
X106845Y41237D03*
X96330Y41237D03*
X85052Y41237D03*
D98*
X115913Y41237D03*
D64*
X103264Y41237D03*
D97*
X90691Y41237D03*
D15*
X121476Y41389D03*
X106845Y41389D03*
X96330Y41389D03*
D97*
X115837Y41389D03*
D64*
X103264Y41389D03*
D97*
X90691Y41389D03*
D15*
X106845Y41542D03*
X96330Y41542D03*
D97*
X115837Y41542D03*
D64*
X103264Y41542D03*
D96*
X90767Y41542D03*
D15*
X106845Y41694D03*
X96330Y41694D03*
X85357Y41694D03*
D96*
X115761Y41694D03*
D64*
X103264Y41694D03*
D95*
X90843Y41694D03*
D15*
X121171Y41846D03*
X106845Y41846D03*
X96330Y41846D03*
D95*
X115684Y41846D03*
D64*
X103264Y41846D03*
D95*
X90843Y41846D03*
D15*
X106845Y41999D03*
X96330Y41999D03*
X85509Y41999D03*
D95*
X115684Y41999D03*
D64*
X103264Y41999D03*
D94*
X90919Y41999D03*
D15*
X106845Y42151D03*
X96330Y42151D03*
D94*
X115608Y42151D03*
D64*
X103264Y42151D03*
D94*
X90919Y42151D03*
D15*
X120866Y42304D03*
X106845Y42304D03*
X96330Y42304D03*
X85662Y42304D03*
D93*
X115532Y42304D03*
D64*
X103264Y42304D03*
D93*
X90996Y42304D03*
D15*
X106845Y42456D03*
X96330Y42456D03*
X85814Y42456D03*
D93*
X115532Y42456D03*
D64*
X103264Y42456D03*
D92*
X91072Y42456D03*
D15*
X120714Y42608D03*
X106845Y42608D03*
X96330Y42608D03*
D92*
X115456Y42608D03*
D64*
X103264Y42608D03*
D92*
X91072Y42608D03*
D15*
X106845Y42761D03*
X96330Y42761D03*
X85966Y42761D03*
D92*
X115456Y42761D03*
D64*
X103264Y42761D03*
D91*
X91148Y42761D03*
D15*
X120561Y42913D03*
X110198Y42913D03*
X106845Y42913D03*
X96330Y42913D03*
D91*
X115380Y42913D03*
D64*
X103264Y42913D03*
D91*
X91148Y42913D03*
D15*
X120409Y43066D03*
X110198Y43066D03*
X106845Y43066D03*
X96330Y43066D03*
X86119Y43066D03*
D90*
X115303Y43066D03*
D64*
X103264Y43066D03*
D90*
X91224Y43066D03*
D15*
X110198Y43218D03*
X106845Y43218D03*
X96330Y43218D03*
D90*
X115303Y43218D03*
D64*
X103264Y43218D03*
D90*
X91224Y43218D03*
D15*
X120256Y43370D03*
X110198Y43370D03*
X106845Y43370D03*
X96330Y43370D03*
X86271Y43370D03*
D89*
X115227Y43370D03*
D64*
X103264Y43370D03*
D89*
X91300Y43370D03*
D15*
X110198Y43523D03*
X106845Y43523D03*
X96330Y43523D03*
X86424Y43523D03*
D89*
X115227Y43523D03*
D64*
X103264Y43523D03*
D88*
X91377Y43523D03*
D15*
X120104Y43675D03*
X110198Y43675D03*
X106845Y43675D03*
X96330Y43675D03*
D88*
X115151Y43675D03*
D64*
X103264Y43675D03*
D88*
X91377Y43675D03*
D15*
X110198Y43828D03*
X106845Y43828D03*
X96330Y43828D03*
X86576Y43828D03*
D88*
X115151Y43828D03*
D64*
X103264Y43828D03*
D87*
X91453Y43828D03*
D15*
X119952Y43980D03*
X110198Y43980D03*
X106845Y43980D03*
X96330Y43980D03*
D87*
X115075Y43980D03*
D64*
X103264Y43980D03*
D87*
X91453Y43980D03*
D15*
X119799Y44132D03*
X110198Y44132D03*
X106845Y44132D03*
X96330Y44132D03*
X86728Y44132D03*
D86*
X114999Y44132D03*
D64*
X103264Y44132D03*
D86*
X91529Y44132D03*
D15*
X110198Y44285D03*
X106845Y44285D03*
X96330Y44285D03*
D86*
X114999Y44285D03*
D64*
X103264Y44285D03*
D86*
X91529Y44285D03*
D15*
X119647Y44437D03*
X110198Y44437D03*
X106845Y44437D03*
X96330Y44437D03*
D85*
X114922Y44437D03*
D64*
X103264Y44437D03*
D85*
X91605Y44437D03*
D15*
X110198Y44590D03*
X106845Y44590D03*
X96330Y44590D03*
X87033Y44590D03*
D85*
X114922Y44590D03*
D64*
X103264Y44590D03*
D84*
X91681Y44590D03*
D15*
X119494Y44742D03*
X110198Y44742D03*
X106845Y44742D03*
X96330Y44742D03*
D84*
X114846Y44742D03*
D64*
X103264Y44742D03*
D84*
X91681Y44742D03*
D15*
X110198Y44894D03*
X106845Y44894D03*
X96330Y44894D03*
X87186Y44894D03*
D84*
X114846Y44894D03*
D64*
X103264Y44894D03*
D83*
X91758Y44894D03*
D15*
X119342Y45047D03*
X110198Y45047D03*
X106845Y45047D03*
X96330Y45047D03*
D83*
X114770Y45047D03*
D64*
X103264Y45047D03*
D83*
X91758Y45047D03*
D15*
X119190Y45199D03*
X110198Y45199D03*
X106845Y45199D03*
X96330Y45199D03*
X87338Y45199D03*
D82*
X114694Y45199D03*
D64*
X103264Y45199D03*
D82*
X91834Y45199D03*
D15*
X110198Y45352D03*
X106845Y45352D03*
X96330Y45352D03*
X87490Y45352D03*
D82*
X114694Y45352D03*
D64*
X103264Y45352D03*
D81*
X91910Y45352D03*
D15*
X119037Y45504D03*
X110198Y45504D03*
X106845Y45504D03*
X96330Y45504D03*
D81*
X114618Y45504D03*
D64*
X103264Y45504D03*
D81*
X91910Y45504D03*
D15*
X110198Y45656D03*
X106845Y45656D03*
X96330Y45656D03*
X87643Y45656D03*
D81*
X114618Y45656D03*
D64*
X103264Y45656D03*
D76*
X91986Y45656D03*
D15*
X118885Y45809D03*
X110198Y45809D03*
X106845Y45809D03*
X96330Y45809D03*
D76*
X114541Y45809D03*
D64*
X103264Y45809D03*
D76*
X91986Y45809D03*
D15*
X110198Y45961D03*
X106845Y45961D03*
X96330Y45961D03*
X87795Y45961D03*
D76*
X114541Y45961D03*
D64*
X103264Y45961D03*
D77*
X92062Y45961D03*
D15*
X110198Y46114D03*
X106845Y46114D03*
X96330Y46114D03*
D77*
X114465Y46114D03*
D64*
X103264Y46114D03*
D77*
X92062Y46114D03*
D15*
X118580Y46266D03*
X110198Y46266D03*
X106845Y46266D03*
X96330Y46266D03*
X87948Y46266D03*
D80*
X114389Y46266D03*
D64*
X103264Y46266D03*
D80*
X92139Y46266D03*
D15*
X110198Y46418D03*
X96330Y46418D03*
X88100Y46418D03*
D80*
X114389Y46418D03*
D65*
X103340Y46418D03*
D73*
X92215Y46418D03*
D15*
X118428Y46571D03*
X96330Y46571D03*
D80*
X114237Y46571D03*
D65*
X103340Y46571D03*
D73*
X92215Y46571D03*
D15*
X110046Y46723D03*
X106998Y46723D03*
X96330Y46723D03*
X88252Y46723D03*
D80*
X114237Y46723D03*
D65*
X103340Y46723D03*
D78*
X92291Y46723D03*
D15*
X118275Y46876D03*
X96330Y46876D03*
D80*
X114084Y46876D03*
D66*
X103416Y46876D03*
D78*
X92291Y46876D03*
D15*
X118123Y47028D03*
X109893Y47028D03*
X96330Y47028D03*
X88405Y47028D03*
D73*
X114008Y47028D03*
D69*
X103492Y47028D03*
D75*
X92367Y47028D03*
D15*
X109741Y47180D03*
X107302Y47180D03*
X96330Y47180D03*
D79*
X113932Y47180D03*
D69*
X103492Y47180D03*
D75*
X92367Y47180D03*
D15*
X117970Y47333D03*
X109588Y47333D03*
X107455Y47333D03*
X96330Y47333D03*
X88557Y47333D03*
D80*
X113779Y47333D03*
D72*
X103569Y47333D03*
X92443Y47333D03*
D15*
X109284Y47485D03*
X107760Y47485D03*
X96330Y47485D03*
X88710Y47485D03*
D76*
X113627Y47485D03*
D78*
X103721Y47485D03*
D69*
X92520Y47485D03*
D15*
X117818Y47638D03*
D115*
X108826Y47638D03*
X108217Y47638D03*
D15*
X96330Y47638D03*
D74*
X113398Y47638D03*
D80*
X103873Y47638D03*
D69*
X92520Y47638D03*
D15*
X96330Y47790D03*
X88862Y47790D03*
D70*
X108750Y47790D03*
D66*
X92596Y47790D03*
D15*
X117666Y47942D03*
X96330Y47942D03*
D68*
X108674Y47942D03*
D66*
X92596Y47942D03*
D15*
X117513Y48095D03*
X96330Y48095D03*
X89014Y48095D03*
D67*
X108598Y48095D03*
D65*
X92672Y48095D03*
D15*
X96330Y48247D03*
D67*
X108598Y48247D03*
D65*
X92672Y48247D03*
D15*
X117361Y48400D03*
X96330Y48400D03*
D63*
X108522Y48400D03*
D64*
X92748Y48400D03*
D15*
X96330Y48552D03*
X89319Y48552D03*
D63*
X108522Y48552D03*
D62*
X92824Y48552D03*
D15*
X117208Y48704D03*
X96330Y48704D03*
D61*
X108445Y48704D03*
D62*
X92824Y48704D03*
D15*
X96330Y48857D03*
X89472Y48857D03*
D61*
X108445Y48857D03*
D60*
X92901Y48857D03*
D15*
X117056Y49009D03*
X96330Y49009D03*
D59*
X108369Y49009D03*
D60*
X92901Y49009D03*
D15*
X116904Y49162D03*
X96330Y49162D03*
X89624Y49162D03*
D57*
X108293Y49162D03*
D58*
X92977Y49162D03*
D15*
X96330Y49314D03*
X89776Y49314D03*
D57*
X108293Y49314D03*
D56*
X93053Y49314D03*
D15*
X116751Y49466D03*
X96330Y49466D03*
D55*
X108217Y49466D03*
D56*
X93053Y49466D03*
D15*
X96330Y49619D03*
X89929Y49619D03*
D55*
X108217Y49619D03*
D54*
X93129Y49619D03*
D15*
X116599Y49771D03*
X96330Y49771D03*
D53*
X108141Y49771D03*
D54*
X93129Y49771D03*
D15*
X116446Y49924D03*
X96330Y49924D03*
X90081Y49924D03*
D51*
X108064Y49924D03*
D52*
X93205Y49924D03*
D15*
X96330Y50076D03*
D51*
X108064Y50076D03*
D52*
X93205Y50076D03*
D15*
X116294Y50228D03*
X96330Y50228D03*
X90234Y50228D03*
D49*
X107988Y50228D03*
D50*
X93282Y50228D03*
D15*
X96330Y50381D03*
X90386Y50381D03*
D49*
X107988Y50381D03*
D48*
X93358Y50381D03*
D15*
X116142Y50533D03*
X96330Y50533D03*
D47*
X107912Y50533D03*
D48*
X93358Y50533D03*
D15*
X96330Y50686D03*
X90538Y50686D03*
D47*
X107912Y50686D03*
D46*
X93434Y50686D03*
D15*
X115989Y50838D03*
X96330Y50838D03*
D45*
X107836Y50838D03*
D46*
X93434Y50838D03*
D15*
X115837Y50990D03*
X96330Y50990D03*
X90691Y50990D03*
D43*
X107760Y50990D03*
D44*
X93510Y50990D03*
D15*
X96330Y51143D03*
D43*
X107760Y51143D03*
D44*
X93510Y51143D03*
D15*
X115684Y51295D03*
X96330Y51295D03*
X90843Y51295D03*
D41*
X107683Y51295D03*
D42*
X93586Y51295D03*
D15*
X96330Y51448D03*
X90996Y51448D03*
D41*
X107683Y51448D03*
D40*
X93663Y51448D03*
D15*
X115532Y51600D03*
X96330Y51600D03*
D39*
X107607Y51600D03*
D40*
X93663Y51600D03*
D15*
X96330Y51752D03*
X91148Y51752D03*
D39*
X107607Y51752D03*
D38*
X93739Y51752D03*
D15*
X115380Y51905D03*
X96330Y51905D03*
D37*
X107531Y51905D03*
D38*
X93739Y51905D03*
D15*
X115227Y52057D03*
X96330Y52057D03*
X91300Y52057D03*
D35*
X107455Y52057D03*
D36*
X93815Y52057D03*
D15*
X96330Y52210D03*
X91453Y52210D03*
D35*
X107455Y52210D03*
D34*
X93891Y52210D03*
D15*
X115075Y52362D03*
X96330Y52362D03*
D33*
X107379Y52362D03*
D34*
X93891Y52362D03*
D15*
X96330Y52514D03*
X91605Y52514D03*
D33*
X107379Y52514D03*
D32*
X93967Y52514D03*
D71*
X114694Y52667D03*
D15*
X114922Y52667D03*
X96330Y52667D03*
D27*
X107150Y52667D03*
D32*
X93967Y52667D03*
D116*
X114389Y52819D03*
D15*
X96330Y52819D03*
X91758Y52819D03*
X114770Y52819D03*
D117*
X106921Y52819D03*
D30*
X94044Y52819D03*
D118*
X114160Y52972D03*
D15*
X114770Y52972D03*
X96330Y52972D03*
D114*
X106693Y52972D03*
D30*
X94044Y52972D03*
D119*
X113932Y53124D03*
D15*
X114618Y53124D03*
X96330Y53124D03*
X91910Y53124D03*
D17*
X106540Y53124D03*
D28*
X94120Y53124D03*
D120*
X113627Y53276D03*
D15*
X96330Y53276D03*
X92062Y53276D03*
X114465Y53276D03*
D14*
X106312Y53276D03*
D26*
X94196Y53276D03*
D121*
X113475Y53429D03*
D122*
X96101Y53429D03*
D15*
X114465Y53429D03*
X96330Y53429D03*
D108*
X106159Y53429D03*
D22*
X94044Y53429D03*
D123*
X113170Y53581D03*
D124*
X95872Y53581D03*
D15*
X114313Y53581D03*
X96330Y53581D03*
D105*
X105931Y53581D03*
D125*
X93891Y53581D03*
D126*
X112865Y53734D03*
D127*
X95720Y53734D03*
D15*
X114160Y53734D03*
X96330Y53734D03*
D102*
X105702Y53734D03*
D128*
X93815Y53734D03*
D129*
X112636Y53886D03*
D120*
X95491Y53886D03*
D15*
X114008Y53886D03*
X96330Y53886D03*
X92672Y53886D03*
D100*
X105550Y53886D03*
D130*
X93739Y53886D03*
D128*
X112255Y54038D03*
D121*
X95339Y54038D03*
D15*
X113703Y54038D03*
X96330Y54038D03*
X92824Y54038D03*
D97*
X105321Y54038D03*
D120*
X93663Y54038D03*
D128*
X111951Y54191D03*
D131*
X95110Y54191D03*
D15*
X113398Y54191D03*
X96330Y54191D03*
X93129Y54191D03*
D95*
X105169Y54191D03*
D124*
X93586Y54191D03*
D126*
X111341Y54343D03*
D131*
X95110Y54343D03*
D115*
X112941Y54343D03*
D15*
X96330Y54343D03*
D122*
X93663Y54343D03*
D15*
X112636Y54343D03*
D92*
X104940Y54343D03*
D15*
X93891Y54343D03*
M02*
