G04 EAGLE Gerber RS-274X export*
G75*
%MOMM*%
%FSLAX34Y34*%
%LPD*%
%INSilkscreen Top*%
%IPPOS*%
%AMOC8*
5,1,8,0,0,1.08239X$1,22.5*%
G01*
%ADD10C,0.076200*%
%ADD11C,0.200000*%
%ADD12C,0.254000*%
%ADD13C,0.101600*%
%ADD14C,0.127000*%
%ADD15C,0.304800*%


D10*
X-52769Y91892D02*
X-62167Y91892D01*
X-62167Y94502D02*
X-62167Y89281D01*
X-52769Y97293D02*
X-62167Y103559D01*
X-62167Y97293D02*
X-52769Y103559D01*
X-52769Y38481D02*
X-62167Y38481D01*
X-62167Y41092D01*
X-62165Y41193D01*
X-62159Y41294D01*
X-62149Y41395D01*
X-62136Y41495D01*
X-62118Y41595D01*
X-62097Y41694D01*
X-62071Y41792D01*
X-62042Y41889D01*
X-62010Y41985D01*
X-61973Y42079D01*
X-61933Y42172D01*
X-61889Y42264D01*
X-61842Y42353D01*
X-61791Y42441D01*
X-61737Y42527D01*
X-61680Y42610D01*
X-61620Y42692D01*
X-61556Y42770D01*
X-61490Y42847D01*
X-61420Y42920D01*
X-61348Y42991D01*
X-61273Y43059D01*
X-61195Y43124D01*
X-61115Y43186D01*
X-61033Y43245D01*
X-60948Y43301D01*
X-60862Y43353D01*
X-60773Y43402D01*
X-60682Y43448D01*
X-60590Y43489D01*
X-60496Y43528D01*
X-60401Y43562D01*
X-60305Y43593D01*
X-60207Y43620D01*
X-60109Y43644D01*
X-60009Y43663D01*
X-59909Y43679D01*
X-59809Y43691D01*
X-59708Y43699D01*
X-59607Y43703D01*
X-59505Y43703D01*
X-59404Y43699D01*
X-59303Y43691D01*
X-59203Y43679D01*
X-59103Y43663D01*
X-59003Y43644D01*
X-58905Y43620D01*
X-58807Y43593D01*
X-58711Y43562D01*
X-58616Y43528D01*
X-58522Y43489D01*
X-58430Y43448D01*
X-58339Y43402D01*
X-58251Y43353D01*
X-58164Y43301D01*
X-58079Y43245D01*
X-57997Y43186D01*
X-57917Y43124D01*
X-57839Y43059D01*
X-57764Y42991D01*
X-57692Y42920D01*
X-57622Y42847D01*
X-57556Y42770D01*
X-57492Y42692D01*
X-57432Y42610D01*
X-57375Y42527D01*
X-57321Y42441D01*
X-57270Y42353D01*
X-57223Y42264D01*
X-57179Y42172D01*
X-57139Y42079D01*
X-57102Y41985D01*
X-57070Y41889D01*
X-57041Y41792D01*
X-57015Y41694D01*
X-56994Y41595D01*
X-56976Y41495D01*
X-56963Y41395D01*
X-56953Y41294D01*
X-56947Y41193D01*
X-56945Y41092D01*
X-56945Y38481D01*
X-56945Y41614D02*
X-52769Y43702D01*
X-52769Y47046D02*
X-62167Y53311D01*
X-62167Y47046D02*
X-52769Y53311D01*
D11*
X93250Y108025D02*
X93252Y107981D01*
X93258Y107938D01*
X93267Y107896D01*
X93280Y107854D01*
X93297Y107814D01*
X93317Y107775D01*
X93340Y107738D01*
X93367Y107704D01*
X93396Y107671D01*
X93429Y107642D01*
X93463Y107615D01*
X93500Y107592D01*
X93539Y107572D01*
X93579Y107555D01*
X93621Y107542D01*
X93663Y107533D01*
X93706Y107527D01*
X93750Y107525D01*
X93794Y107527D01*
X93837Y107533D01*
X93879Y107542D01*
X93921Y107555D01*
X93961Y107572D01*
X94000Y107592D01*
X94037Y107615D01*
X94071Y107642D01*
X94104Y107671D01*
X94133Y107704D01*
X94160Y107738D01*
X94183Y107775D01*
X94203Y107814D01*
X94220Y107854D01*
X94233Y107896D01*
X94242Y107938D01*
X94248Y107981D01*
X94250Y108025D01*
X94248Y108069D01*
X94242Y108112D01*
X94233Y108154D01*
X94220Y108196D01*
X94203Y108236D01*
X94183Y108275D01*
X94160Y108312D01*
X94133Y108346D01*
X94104Y108379D01*
X94071Y108408D01*
X94037Y108435D01*
X94000Y108458D01*
X93961Y108478D01*
X93921Y108495D01*
X93879Y108508D01*
X93837Y108517D01*
X93794Y108523D01*
X93750Y108525D01*
X93706Y108523D01*
X93663Y108517D01*
X93621Y108508D01*
X93579Y108495D01*
X93539Y108478D01*
X93500Y108458D01*
X93463Y108435D01*
X93429Y108408D01*
X93396Y108379D01*
X93367Y108346D01*
X93340Y108312D01*
X93317Y108275D01*
X93297Y108236D01*
X93280Y108196D01*
X93267Y108154D01*
X93258Y108112D01*
X93252Y108069D01*
X93250Y108025D01*
X93252Y107981D01*
X93258Y107938D01*
X93267Y107896D01*
X93280Y107854D01*
X93297Y107814D01*
X93317Y107775D01*
X93340Y107738D01*
X93367Y107704D01*
X93396Y107671D01*
X93429Y107642D01*
X93463Y107615D01*
X93500Y107592D01*
X93539Y107572D01*
X93579Y107555D01*
X93621Y107542D01*
X93663Y107533D01*
X93706Y107527D01*
X93750Y107525D01*
X93794Y107527D01*
X93837Y107533D01*
X93879Y107542D01*
X93921Y107555D01*
X93961Y107572D01*
X94000Y107592D01*
X94037Y107615D01*
X94071Y107642D01*
X94104Y107671D01*
X94133Y107704D01*
X94160Y107738D01*
X94183Y107775D01*
X94203Y107814D01*
X94220Y107854D01*
X94233Y107896D01*
X94242Y107938D01*
X94248Y107981D01*
X94250Y108025D01*
X128250Y109025D02*
X128250Y37025D01*
D12*
X165100Y14288D02*
X165100Y131763D01*
D11*
X-46618Y83325D02*
X-46618Y37325D01*
X-46618Y83325D02*
X56143Y83325D01*
X56143Y37325D01*
X-46618Y37325D01*
X-43238Y33825D02*
X-43238Y16825D01*
D10*
X-5271Y56912D02*
X2096Y56912D01*
X2096Y56094D02*
X2096Y57731D01*
X-5271Y57731D02*
X-5271Y56094D01*
X2096Y62332D02*
X2096Y63969D01*
X2096Y62332D02*
X2094Y62254D01*
X2089Y62176D01*
X2079Y62099D01*
X2066Y62022D01*
X2050Y61946D01*
X2030Y61871D01*
X2006Y61797D01*
X1979Y61724D01*
X1948Y61652D01*
X1914Y61582D01*
X1877Y61514D01*
X1836Y61447D01*
X1792Y61382D01*
X1746Y61320D01*
X1696Y61260D01*
X1644Y61202D01*
X1589Y61147D01*
X1531Y61095D01*
X1471Y61045D01*
X1409Y60999D01*
X1344Y60955D01*
X1278Y60914D01*
X1209Y60877D01*
X1139Y60843D01*
X1067Y60812D01*
X994Y60785D01*
X920Y60761D01*
X845Y60741D01*
X769Y60725D01*
X692Y60712D01*
X615Y60702D01*
X537Y60697D01*
X459Y60695D01*
X-3634Y60695D01*
X-3712Y60697D01*
X-3790Y60702D01*
X-3867Y60712D01*
X-3944Y60725D01*
X-4020Y60741D01*
X-4095Y60761D01*
X-4169Y60785D01*
X-4242Y60812D01*
X-4314Y60843D01*
X-4384Y60877D01*
X-4453Y60914D01*
X-4519Y60955D01*
X-4584Y60999D01*
X-4646Y61045D01*
X-4706Y61095D01*
X-4764Y61147D01*
X-4819Y61202D01*
X-4871Y61260D01*
X-4921Y61320D01*
X-4967Y61382D01*
X-5011Y61447D01*
X-5052Y61514D01*
X-5089Y61582D01*
X-5123Y61652D01*
X-5154Y61724D01*
X-5181Y61797D01*
X-5205Y61871D01*
X-5225Y61946D01*
X-5241Y62022D01*
X-5254Y62099D01*
X-5264Y62176D01*
X-5269Y62254D01*
X-5271Y62332D01*
X-5271Y63969D01*
X-3634Y66814D02*
X-5271Y68860D01*
X2096Y68860D01*
X2096Y66814D02*
X2096Y70906D01*
D12*
X71311Y79375D02*
X77915Y79375D01*
D10*
X45069Y71628D02*
X43432Y71628D01*
X43354Y71630D01*
X43276Y71635D01*
X43199Y71645D01*
X43122Y71658D01*
X43046Y71674D01*
X42971Y71694D01*
X42897Y71718D01*
X42824Y71745D01*
X42752Y71776D01*
X42682Y71810D01*
X42614Y71847D01*
X42547Y71888D01*
X42482Y71932D01*
X42420Y71978D01*
X42360Y72028D01*
X42302Y72080D01*
X42247Y72135D01*
X42195Y72193D01*
X42145Y72253D01*
X42099Y72315D01*
X42055Y72380D01*
X42014Y72447D01*
X41977Y72515D01*
X41943Y72585D01*
X41912Y72657D01*
X41885Y72730D01*
X41861Y72804D01*
X41841Y72879D01*
X41825Y72955D01*
X41812Y73032D01*
X41802Y73109D01*
X41797Y73187D01*
X41795Y73265D01*
X41795Y77357D01*
X41797Y77437D01*
X41803Y77517D01*
X41813Y77597D01*
X41826Y77676D01*
X41844Y77755D01*
X41865Y77832D01*
X41891Y77908D01*
X41920Y77983D01*
X41952Y78057D01*
X41988Y78129D01*
X42028Y78199D01*
X42071Y78266D01*
X42117Y78332D01*
X42167Y78395D01*
X42219Y78456D01*
X42274Y78515D01*
X42333Y78570D01*
X42393Y78622D01*
X42457Y78672D01*
X42523Y78718D01*
X42590Y78761D01*
X42660Y78801D01*
X42732Y78837D01*
X42806Y78869D01*
X42880Y78898D01*
X42957Y78924D01*
X43034Y78945D01*
X43113Y78963D01*
X43192Y78976D01*
X43272Y78986D01*
X43352Y78992D01*
X43432Y78994D01*
X45069Y78994D01*
X47914Y71628D02*
X49960Y71628D01*
X50049Y71630D01*
X50138Y71636D01*
X50227Y71646D01*
X50315Y71659D01*
X50403Y71676D01*
X50490Y71698D01*
X50575Y71723D01*
X50660Y71751D01*
X50743Y71784D01*
X50825Y71820D01*
X50905Y71859D01*
X50983Y71902D01*
X51059Y71948D01*
X51134Y71998D01*
X51206Y72051D01*
X51275Y72107D01*
X51342Y72166D01*
X51407Y72227D01*
X51468Y72292D01*
X51527Y72359D01*
X51583Y72428D01*
X51636Y72500D01*
X51686Y72575D01*
X51732Y72651D01*
X51775Y72729D01*
X51814Y72809D01*
X51850Y72891D01*
X51883Y72974D01*
X51911Y73059D01*
X51936Y73144D01*
X51958Y73231D01*
X51975Y73319D01*
X51988Y73407D01*
X51998Y73496D01*
X52004Y73585D01*
X52006Y73674D01*
X52004Y73763D01*
X51998Y73852D01*
X51988Y73941D01*
X51975Y74029D01*
X51958Y74117D01*
X51936Y74204D01*
X51911Y74289D01*
X51883Y74374D01*
X51850Y74457D01*
X51814Y74539D01*
X51775Y74619D01*
X51732Y74697D01*
X51686Y74773D01*
X51636Y74848D01*
X51583Y74920D01*
X51527Y74989D01*
X51468Y75056D01*
X51407Y75121D01*
X51342Y75182D01*
X51275Y75241D01*
X51206Y75297D01*
X51134Y75350D01*
X51059Y75400D01*
X50983Y75446D01*
X50905Y75489D01*
X50825Y75528D01*
X50743Y75564D01*
X50660Y75597D01*
X50575Y75625D01*
X50490Y75650D01*
X50403Y75672D01*
X50315Y75689D01*
X50227Y75702D01*
X50138Y75712D01*
X50049Y75718D01*
X49960Y75720D01*
X50370Y78994D02*
X47914Y78994D01*
X50370Y78994D02*
X50449Y78992D01*
X50528Y78986D01*
X50607Y78977D01*
X50685Y78964D01*
X50762Y78946D01*
X50838Y78926D01*
X50913Y78901D01*
X50987Y78873D01*
X51060Y78842D01*
X51131Y78806D01*
X51200Y78768D01*
X51267Y78726D01*
X51332Y78681D01*
X51395Y78633D01*
X51456Y78582D01*
X51513Y78528D01*
X51569Y78472D01*
X51621Y78413D01*
X51671Y78351D01*
X51717Y78287D01*
X51761Y78221D01*
X51801Y78153D01*
X51837Y78083D01*
X51871Y78011D01*
X51901Y77937D01*
X51927Y77863D01*
X51950Y77787D01*
X51968Y77710D01*
X51984Y77633D01*
X51995Y77554D01*
X52003Y77476D01*
X52007Y77397D01*
X52007Y77317D01*
X52003Y77238D01*
X51995Y77160D01*
X51984Y77081D01*
X51968Y77004D01*
X51950Y76927D01*
X51927Y76851D01*
X51901Y76777D01*
X51871Y76703D01*
X51837Y76631D01*
X51801Y76561D01*
X51761Y76493D01*
X51717Y76427D01*
X51671Y76363D01*
X51621Y76301D01*
X51569Y76242D01*
X51513Y76186D01*
X51456Y76132D01*
X51395Y76081D01*
X51332Y76033D01*
X51267Y75988D01*
X51200Y75946D01*
X51131Y75908D01*
X51060Y75872D01*
X50987Y75841D01*
X50913Y75813D01*
X50838Y75788D01*
X50762Y75768D01*
X50685Y75750D01*
X50607Y75737D01*
X50528Y75728D01*
X50449Y75722D01*
X50370Y75720D01*
X48733Y75720D01*
D12*
X71311Y36513D02*
X77915Y36513D01*
D10*
X45069Y39878D02*
X43432Y39878D01*
X43354Y39880D01*
X43276Y39885D01*
X43199Y39895D01*
X43122Y39908D01*
X43046Y39924D01*
X42971Y39944D01*
X42897Y39968D01*
X42824Y39995D01*
X42752Y40026D01*
X42682Y40060D01*
X42614Y40097D01*
X42547Y40138D01*
X42482Y40182D01*
X42420Y40228D01*
X42360Y40278D01*
X42302Y40330D01*
X42247Y40385D01*
X42195Y40443D01*
X42145Y40503D01*
X42099Y40565D01*
X42055Y40630D01*
X42014Y40697D01*
X41977Y40765D01*
X41943Y40835D01*
X41912Y40907D01*
X41885Y40980D01*
X41861Y41054D01*
X41841Y41129D01*
X41825Y41205D01*
X41812Y41282D01*
X41802Y41359D01*
X41797Y41437D01*
X41795Y41515D01*
X41795Y45607D01*
X41797Y45687D01*
X41803Y45767D01*
X41813Y45847D01*
X41826Y45926D01*
X41844Y46005D01*
X41865Y46082D01*
X41891Y46158D01*
X41920Y46233D01*
X41952Y46307D01*
X41988Y46379D01*
X42028Y46449D01*
X42071Y46516D01*
X42117Y46582D01*
X42167Y46645D01*
X42219Y46706D01*
X42274Y46765D01*
X42333Y46820D01*
X42393Y46872D01*
X42457Y46922D01*
X42523Y46968D01*
X42590Y47011D01*
X42660Y47051D01*
X42732Y47087D01*
X42806Y47119D01*
X42880Y47148D01*
X42957Y47174D01*
X43034Y47195D01*
X43113Y47213D01*
X43192Y47226D01*
X43272Y47236D01*
X43352Y47242D01*
X43432Y47244D01*
X45069Y47244D01*
X49551Y47244D02*
X47914Y41515D01*
X52007Y41515D01*
X50779Y43152D02*
X50779Y39878D01*
D12*
X71311Y50800D02*
X77661Y50800D01*
D10*
X41656Y51181D02*
X41656Y58547D01*
X43702Y58547D01*
X43791Y58545D01*
X43880Y58539D01*
X43969Y58529D01*
X44057Y58516D01*
X44145Y58499D01*
X44232Y58477D01*
X44317Y58452D01*
X44402Y58424D01*
X44485Y58391D01*
X44567Y58355D01*
X44647Y58316D01*
X44725Y58273D01*
X44801Y58227D01*
X44876Y58177D01*
X44948Y58124D01*
X45017Y58068D01*
X45084Y58009D01*
X45149Y57948D01*
X45210Y57883D01*
X45269Y57816D01*
X45325Y57747D01*
X45378Y57675D01*
X45428Y57600D01*
X45474Y57524D01*
X45517Y57446D01*
X45556Y57366D01*
X45592Y57284D01*
X45625Y57201D01*
X45653Y57116D01*
X45678Y57031D01*
X45700Y56944D01*
X45717Y56856D01*
X45730Y56768D01*
X45740Y56679D01*
X45746Y56590D01*
X45748Y56501D01*
X45746Y56412D01*
X45740Y56323D01*
X45730Y56234D01*
X45717Y56146D01*
X45700Y56058D01*
X45678Y55971D01*
X45653Y55886D01*
X45625Y55801D01*
X45592Y55718D01*
X45556Y55636D01*
X45517Y55556D01*
X45474Y55478D01*
X45428Y55402D01*
X45378Y55327D01*
X45325Y55255D01*
X45269Y55186D01*
X45210Y55119D01*
X45149Y55054D01*
X45084Y54993D01*
X45017Y54934D01*
X44948Y54878D01*
X44876Y54825D01*
X44801Y54775D01*
X44725Y54729D01*
X44647Y54686D01*
X44567Y54647D01*
X44485Y54611D01*
X44402Y54578D01*
X44317Y54550D01*
X44232Y54525D01*
X44145Y54503D01*
X44057Y54486D01*
X43969Y54473D01*
X43880Y54463D01*
X43791Y54457D01*
X43702Y54455D01*
X41656Y54455D01*
X44111Y54455D02*
X45748Y51181D01*
X48920Y56910D02*
X50966Y58547D01*
X50966Y51181D01*
X48920Y51181D02*
X53012Y51181D01*
D12*
X71311Y65088D02*
X77661Y65088D01*
D10*
X42238Y67882D02*
X42238Y60516D01*
X42238Y67882D02*
X44284Y67882D01*
X44284Y67881D02*
X44373Y67879D01*
X44462Y67873D01*
X44551Y67863D01*
X44639Y67850D01*
X44727Y67833D01*
X44814Y67811D01*
X44899Y67786D01*
X44984Y67758D01*
X45067Y67725D01*
X45149Y67689D01*
X45229Y67650D01*
X45307Y67607D01*
X45383Y67561D01*
X45458Y67511D01*
X45530Y67458D01*
X45599Y67402D01*
X45666Y67343D01*
X45731Y67282D01*
X45792Y67217D01*
X45851Y67150D01*
X45907Y67081D01*
X45960Y67009D01*
X46010Y66934D01*
X46056Y66858D01*
X46099Y66780D01*
X46138Y66700D01*
X46174Y66618D01*
X46207Y66535D01*
X46235Y66450D01*
X46260Y66365D01*
X46282Y66278D01*
X46299Y66190D01*
X46312Y66102D01*
X46322Y66013D01*
X46328Y65924D01*
X46330Y65835D01*
X46328Y65746D01*
X46322Y65657D01*
X46312Y65568D01*
X46299Y65480D01*
X46282Y65392D01*
X46260Y65305D01*
X46235Y65220D01*
X46207Y65135D01*
X46174Y65052D01*
X46138Y64970D01*
X46099Y64890D01*
X46056Y64812D01*
X46010Y64736D01*
X45960Y64661D01*
X45907Y64589D01*
X45851Y64520D01*
X45792Y64453D01*
X45731Y64388D01*
X45666Y64327D01*
X45599Y64268D01*
X45530Y64212D01*
X45458Y64159D01*
X45383Y64109D01*
X45307Y64063D01*
X45229Y64020D01*
X45149Y63981D01*
X45067Y63945D01*
X44984Y63912D01*
X44899Y63884D01*
X44814Y63859D01*
X44727Y63837D01*
X44639Y63820D01*
X44551Y63807D01*
X44462Y63797D01*
X44373Y63791D01*
X44284Y63789D01*
X42238Y63789D01*
X44693Y63789D02*
X46330Y60516D01*
X53595Y66040D02*
X53593Y66125D01*
X53587Y66210D01*
X53577Y66294D01*
X53564Y66378D01*
X53546Y66462D01*
X53525Y66544D01*
X53500Y66625D01*
X53471Y66705D01*
X53438Y66784D01*
X53402Y66861D01*
X53362Y66936D01*
X53319Y67010D01*
X53273Y67081D01*
X53223Y67150D01*
X53170Y67217D01*
X53114Y67281D01*
X53055Y67342D01*
X52994Y67401D01*
X52930Y67457D01*
X52863Y67510D01*
X52794Y67560D01*
X52723Y67606D01*
X52649Y67649D01*
X52574Y67689D01*
X52497Y67725D01*
X52418Y67758D01*
X52338Y67787D01*
X52257Y67812D01*
X52175Y67833D01*
X52091Y67851D01*
X52007Y67864D01*
X51923Y67874D01*
X51838Y67880D01*
X51753Y67882D01*
X51657Y67880D01*
X51561Y67874D01*
X51466Y67864D01*
X51371Y67851D01*
X51276Y67833D01*
X51183Y67812D01*
X51090Y67787D01*
X50999Y67758D01*
X50908Y67726D01*
X50819Y67690D01*
X50732Y67650D01*
X50646Y67607D01*
X50562Y67561D01*
X50480Y67511D01*
X50400Y67457D01*
X50323Y67401D01*
X50248Y67341D01*
X50175Y67279D01*
X50105Y67213D01*
X50037Y67145D01*
X49972Y67074D01*
X49911Y67001D01*
X49852Y66925D01*
X49796Y66846D01*
X49744Y66766D01*
X49695Y66683D01*
X49649Y66599D01*
X49607Y66513D01*
X49569Y66425D01*
X49534Y66336D01*
X49502Y66245D01*
X52980Y64608D02*
X53040Y64667D01*
X53097Y64729D01*
X53152Y64793D01*
X53203Y64860D01*
X53252Y64929D01*
X53298Y64999D01*
X53341Y65072D01*
X53381Y65146D01*
X53417Y65222D01*
X53450Y65300D01*
X53480Y65379D01*
X53507Y65459D01*
X53530Y65540D01*
X53549Y65622D01*
X53565Y65704D01*
X53578Y65788D01*
X53587Y65872D01*
X53592Y65956D01*
X53594Y66040D01*
X52980Y64608D02*
X49502Y60516D01*
X53594Y60516D01*
D12*
X4890Y114300D02*
X-1715Y114300D01*
D10*
X-26369Y111316D02*
X-28005Y111316D01*
X-28005Y111315D02*
X-28083Y111317D01*
X-28161Y111322D01*
X-28238Y111332D01*
X-28315Y111345D01*
X-28391Y111361D01*
X-28466Y111381D01*
X-28540Y111405D01*
X-28613Y111432D01*
X-28685Y111463D01*
X-28755Y111497D01*
X-28824Y111534D01*
X-28890Y111575D01*
X-28955Y111619D01*
X-29017Y111665D01*
X-29077Y111715D01*
X-29135Y111767D01*
X-29190Y111822D01*
X-29242Y111880D01*
X-29292Y111940D01*
X-29338Y112002D01*
X-29382Y112067D01*
X-29423Y112134D01*
X-29460Y112202D01*
X-29494Y112272D01*
X-29525Y112344D01*
X-29552Y112417D01*
X-29576Y112491D01*
X-29596Y112566D01*
X-29612Y112642D01*
X-29625Y112719D01*
X-29635Y112796D01*
X-29640Y112874D01*
X-29642Y112952D01*
X-29642Y117045D01*
X-29640Y117123D01*
X-29635Y117201D01*
X-29625Y117278D01*
X-29612Y117355D01*
X-29596Y117431D01*
X-29576Y117506D01*
X-29552Y117580D01*
X-29525Y117653D01*
X-29494Y117725D01*
X-29460Y117795D01*
X-29423Y117864D01*
X-29382Y117930D01*
X-29338Y117995D01*
X-29292Y118057D01*
X-29242Y118117D01*
X-29190Y118175D01*
X-29135Y118230D01*
X-29077Y118282D01*
X-29017Y118332D01*
X-28955Y118378D01*
X-28890Y118422D01*
X-28824Y118463D01*
X-28755Y118500D01*
X-28685Y118534D01*
X-28613Y118565D01*
X-28540Y118592D01*
X-28466Y118616D01*
X-28391Y118636D01*
X-28315Y118652D01*
X-28238Y118665D01*
X-28161Y118675D01*
X-28083Y118680D01*
X-28005Y118682D01*
X-26369Y118682D01*
X-23523Y115408D02*
X-21068Y115408D01*
X-20988Y115406D01*
X-20908Y115400D01*
X-20828Y115390D01*
X-20749Y115377D01*
X-20670Y115359D01*
X-20593Y115338D01*
X-20517Y115312D01*
X-20442Y115283D01*
X-20368Y115251D01*
X-20296Y115215D01*
X-20226Y115175D01*
X-20159Y115132D01*
X-20093Y115086D01*
X-20030Y115036D01*
X-19969Y114984D01*
X-19910Y114929D01*
X-19855Y114870D01*
X-19803Y114810D01*
X-19753Y114746D01*
X-19707Y114680D01*
X-19664Y114613D01*
X-19624Y114543D01*
X-19588Y114471D01*
X-19556Y114397D01*
X-19527Y114323D01*
X-19501Y114246D01*
X-19480Y114169D01*
X-19462Y114090D01*
X-19449Y114011D01*
X-19439Y113931D01*
X-19433Y113851D01*
X-19431Y113771D01*
X-19431Y113362D01*
X-19433Y113273D01*
X-19439Y113184D01*
X-19449Y113095D01*
X-19462Y113007D01*
X-19479Y112919D01*
X-19501Y112832D01*
X-19526Y112747D01*
X-19554Y112662D01*
X-19587Y112579D01*
X-19623Y112497D01*
X-19662Y112417D01*
X-19705Y112339D01*
X-19751Y112263D01*
X-19801Y112188D01*
X-19854Y112116D01*
X-19910Y112047D01*
X-19969Y111980D01*
X-20030Y111915D01*
X-20095Y111854D01*
X-20162Y111795D01*
X-20231Y111739D01*
X-20303Y111686D01*
X-20378Y111636D01*
X-20454Y111590D01*
X-20532Y111547D01*
X-20612Y111508D01*
X-20694Y111472D01*
X-20777Y111439D01*
X-20862Y111411D01*
X-20947Y111386D01*
X-21034Y111364D01*
X-21122Y111347D01*
X-21210Y111334D01*
X-21299Y111324D01*
X-21388Y111318D01*
X-21477Y111316D01*
X-21566Y111318D01*
X-21655Y111324D01*
X-21744Y111334D01*
X-21832Y111347D01*
X-21920Y111364D01*
X-22007Y111386D01*
X-22092Y111411D01*
X-22177Y111439D01*
X-22260Y111472D01*
X-22342Y111508D01*
X-22422Y111547D01*
X-22500Y111590D01*
X-22576Y111636D01*
X-22651Y111686D01*
X-22723Y111739D01*
X-22792Y111795D01*
X-22859Y111854D01*
X-22924Y111915D01*
X-22985Y111980D01*
X-23044Y112047D01*
X-23100Y112116D01*
X-23153Y112188D01*
X-23203Y112263D01*
X-23249Y112339D01*
X-23292Y112417D01*
X-23331Y112497D01*
X-23367Y112579D01*
X-23400Y112662D01*
X-23428Y112747D01*
X-23453Y112832D01*
X-23475Y112919D01*
X-23492Y113007D01*
X-23505Y113095D01*
X-23515Y113184D01*
X-23521Y113273D01*
X-23523Y113362D01*
X-23523Y115408D01*
X-23521Y115520D01*
X-23515Y115631D01*
X-23506Y115743D01*
X-23493Y115854D01*
X-23475Y115964D01*
X-23455Y116074D01*
X-23430Y116183D01*
X-23402Y116291D01*
X-23370Y116398D01*
X-23334Y116504D01*
X-23295Y116609D01*
X-23252Y116712D01*
X-23206Y116814D01*
X-23156Y116914D01*
X-23103Y117013D01*
X-23046Y117109D01*
X-22987Y117204D01*
X-22924Y117296D01*
X-22858Y117386D01*
X-22789Y117474D01*
X-22717Y117560D01*
X-22642Y117643D01*
X-22564Y117723D01*
X-22484Y117801D01*
X-22401Y117876D01*
X-22315Y117948D01*
X-22227Y118017D01*
X-22137Y118083D01*
X-22045Y118146D01*
X-21950Y118205D01*
X-21854Y118262D01*
X-21755Y118315D01*
X-21655Y118365D01*
X-21553Y118411D01*
X-21450Y118454D01*
X-21345Y118493D01*
X-21239Y118529D01*
X-21132Y118561D01*
X-21024Y118589D01*
X-20915Y118614D01*
X-20805Y118634D01*
X-20695Y118652D01*
X-20584Y118665D01*
X-20472Y118674D01*
X-20361Y118680D01*
X-20249Y118682D01*
D13*
X-108959Y99505D02*
X-108959Y87821D01*
X-112205Y99505D02*
X-105713Y99505D01*
X-94396Y99505D02*
X-102186Y87821D01*
X-94396Y87821D02*
X-102186Y99505D01*
X-110617Y125921D02*
X-110617Y137605D01*
X-107371Y137605D01*
X-107258Y137603D01*
X-107145Y137597D01*
X-107032Y137587D01*
X-106919Y137573D01*
X-106807Y137556D01*
X-106696Y137534D01*
X-106586Y137509D01*
X-106476Y137479D01*
X-106368Y137446D01*
X-106261Y137409D01*
X-106155Y137369D01*
X-106051Y137324D01*
X-105948Y137276D01*
X-105847Y137225D01*
X-105748Y137170D01*
X-105651Y137112D01*
X-105556Y137050D01*
X-105463Y136985D01*
X-105373Y136917D01*
X-105285Y136846D01*
X-105199Y136771D01*
X-105116Y136694D01*
X-105036Y136614D01*
X-104959Y136531D01*
X-104884Y136445D01*
X-104813Y136357D01*
X-104745Y136267D01*
X-104680Y136174D01*
X-104618Y136079D01*
X-104560Y135982D01*
X-104505Y135883D01*
X-104454Y135782D01*
X-104406Y135679D01*
X-104361Y135575D01*
X-104321Y135469D01*
X-104284Y135362D01*
X-104251Y135254D01*
X-104221Y135144D01*
X-104196Y135034D01*
X-104174Y134923D01*
X-104157Y134811D01*
X-104143Y134698D01*
X-104133Y134585D01*
X-104127Y134472D01*
X-104125Y134359D01*
X-104127Y134246D01*
X-104133Y134133D01*
X-104143Y134020D01*
X-104157Y133907D01*
X-104174Y133795D01*
X-104196Y133684D01*
X-104221Y133574D01*
X-104251Y133464D01*
X-104284Y133356D01*
X-104321Y133249D01*
X-104361Y133143D01*
X-104406Y133039D01*
X-104454Y132936D01*
X-104505Y132835D01*
X-104560Y132736D01*
X-104618Y132639D01*
X-104680Y132544D01*
X-104745Y132451D01*
X-104813Y132361D01*
X-104884Y132273D01*
X-104959Y132187D01*
X-105036Y132104D01*
X-105116Y132024D01*
X-105199Y131947D01*
X-105285Y131872D01*
X-105373Y131801D01*
X-105463Y131733D01*
X-105556Y131668D01*
X-105651Y131606D01*
X-105748Y131548D01*
X-105847Y131493D01*
X-105948Y131442D01*
X-106051Y131394D01*
X-106155Y131349D01*
X-106261Y131309D01*
X-106368Y131272D01*
X-106476Y131239D01*
X-106586Y131209D01*
X-106696Y131184D01*
X-106807Y131162D01*
X-106919Y131145D01*
X-107032Y131131D01*
X-107145Y131121D01*
X-107258Y131115D01*
X-107371Y131113D01*
X-110617Y131113D01*
X-106722Y131113D02*
X-104126Y125921D01*
X-99910Y125921D02*
X-92120Y137605D01*
X-99910Y137605D02*
X-92120Y125921D01*
D12*
X27115Y133604D02*
X33973Y133604D01*
D10*
X45631Y134557D02*
X45631Y127191D01*
X45631Y134557D02*
X48905Y134557D01*
X48905Y131283D02*
X45631Y131283D01*
X52073Y131283D02*
X54119Y131283D01*
X54208Y131281D01*
X54297Y131275D01*
X54386Y131265D01*
X54474Y131252D01*
X54562Y131235D01*
X54649Y131213D01*
X54734Y131188D01*
X54819Y131160D01*
X54902Y131127D01*
X54984Y131091D01*
X55064Y131052D01*
X55142Y131009D01*
X55218Y130963D01*
X55293Y130913D01*
X55365Y130860D01*
X55434Y130804D01*
X55501Y130745D01*
X55566Y130684D01*
X55627Y130619D01*
X55686Y130552D01*
X55742Y130483D01*
X55795Y130411D01*
X55845Y130336D01*
X55891Y130260D01*
X55934Y130182D01*
X55973Y130102D01*
X56009Y130020D01*
X56042Y129937D01*
X56070Y129852D01*
X56095Y129767D01*
X56117Y129680D01*
X56134Y129592D01*
X56147Y129504D01*
X56157Y129415D01*
X56163Y129326D01*
X56165Y129237D01*
X56163Y129148D01*
X56157Y129059D01*
X56147Y128970D01*
X56134Y128882D01*
X56117Y128794D01*
X56095Y128707D01*
X56070Y128622D01*
X56042Y128537D01*
X56009Y128454D01*
X55973Y128372D01*
X55934Y128292D01*
X55891Y128214D01*
X55845Y128138D01*
X55795Y128063D01*
X55742Y127991D01*
X55686Y127922D01*
X55627Y127855D01*
X55566Y127790D01*
X55501Y127729D01*
X55434Y127670D01*
X55365Y127614D01*
X55293Y127561D01*
X55218Y127511D01*
X55142Y127465D01*
X55064Y127422D01*
X54984Y127383D01*
X54902Y127347D01*
X54819Y127314D01*
X54734Y127286D01*
X54649Y127261D01*
X54562Y127239D01*
X54474Y127222D01*
X54386Y127209D01*
X54297Y127199D01*
X54208Y127193D01*
X54119Y127191D01*
X52073Y127191D01*
X52073Y134557D01*
X54119Y134557D01*
X54198Y134555D01*
X54277Y134549D01*
X54356Y134540D01*
X54434Y134527D01*
X54511Y134509D01*
X54587Y134489D01*
X54662Y134464D01*
X54736Y134436D01*
X54809Y134405D01*
X54880Y134369D01*
X54949Y134331D01*
X55016Y134289D01*
X55081Y134244D01*
X55144Y134196D01*
X55205Y134145D01*
X55262Y134091D01*
X55318Y134035D01*
X55370Y133976D01*
X55420Y133914D01*
X55466Y133850D01*
X55510Y133784D01*
X55550Y133716D01*
X55586Y133646D01*
X55620Y133574D01*
X55650Y133500D01*
X55676Y133426D01*
X55699Y133350D01*
X55717Y133273D01*
X55733Y133196D01*
X55744Y133117D01*
X55752Y133039D01*
X55756Y132960D01*
X55756Y132880D01*
X55752Y132801D01*
X55744Y132723D01*
X55733Y132644D01*
X55717Y132567D01*
X55699Y132490D01*
X55676Y132414D01*
X55650Y132340D01*
X55620Y132266D01*
X55586Y132194D01*
X55550Y132124D01*
X55510Y132056D01*
X55466Y131990D01*
X55420Y131926D01*
X55370Y131864D01*
X55318Y131805D01*
X55262Y131749D01*
X55205Y131695D01*
X55144Y131644D01*
X55081Y131596D01*
X55016Y131551D01*
X54949Y131509D01*
X54880Y131471D01*
X54809Y131435D01*
X54736Y131404D01*
X54662Y131376D01*
X54587Y131351D01*
X54511Y131331D01*
X54434Y131313D01*
X54356Y131300D01*
X54277Y131291D01*
X54198Y131285D01*
X54119Y131283D01*
X59027Y132920D02*
X61073Y134557D01*
X61073Y127191D01*
X59027Y127191D02*
X63119Y127191D01*
D12*
X-60198Y77788D02*
X-66548Y77788D01*
D10*
X-42482Y80772D02*
X-42482Y73406D01*
X-42482Y80772D02*
X-40435Y80772D01*
X-40346Y80770D01*
X-40257Y80764D01*
X-40168Y80754D01*
X-40080Y80741D01*
X-39992Y80724D01*
X-39905Y80702D01*
X-39820Y80677D01*
X-39735Y80649D01*
X-39652Y80616D01*
X-39570Y80580D01*
X-39490Y80541D01*
X-39412Y80498D01*
X-39336Y80452D01*
X-39261Y80402D01*
X-39189Y80349D01*
X-39120Y80293D01*
X-39053Y80234D01*
X-38988Y80173D01*
X-38927Y80108D01*
X-38868Y80041D01*
X-38812Y79972D01*
X-38759Y79900D01*
X-38709Y79825D01*
X-38663Y79749D01*
X-38620Y79671D01*
X-38581Y79591D01*
X-38545Y79509D01*
X-38512Y79426D01*
X-38484Y79341D01*
X-38459Y79256D01*
X-38437Y79169D01*
X-38420Y79081D01*
X-38407Y78993D01*
X-38397Y78904D01*
X-38391Y78815D01*
X-38389Y78726D01*
X-38391Y78637D01*
X-38397Y78548D01*
X-38407Y78459D01*
X-38420Y78371D01*
X-38437Y78283D01*
X-38459Y78196D01*
X-38484Y78111D01*
X-38512Y78026D01*
X-38545Y77943D01*
X-38581Y77861D01*
X-38620Y77781D01*
X-38663Y77703D01*
X-38709Y77627D01*
X-38759Y77552D01*
X-38812Y77480D01*
X-38868Y77411D01*
X-38927Y77344D01*
X-38988Y77279D01*
X-39053Y77218D01*
X-39120Y77159D01*
X-39189Y77103D01*
X-39261Y77050D01*
X-39336Y77000D01*
X-39412Y76954D01*
X-39490Y76911D01*
X-39570Y76872D01*
X-39652Y76836D01*
X-39735Y76803D01*
X-39820Y76775D01*
X-39905Y76750D01*
X-39992Y76728D01*
X-40080Y76711D01*
X-40168Y76698D01*
X-40257Y76688D01*
X-40346Y76682D01*
X-40435Y76680D01*
X-42482Y76680D01*
X-40026Y76680D02*
X-38389Y73406D01*
X-35217Y73406D02*
X-33171Y73406D01*
X-33082Y73408D01*
X-32993Y73414D01*
X-32904Y73424D01*
X-32816Y73437D01*
X-32728Y73454D01*
X-32641Y73476D01*
X-32556Y73501D01*
X-32471Y73529D01*
X-32388Y73562D01*
X-32306Y73598D01*
X-32226Y73637D01*
X-32148Y73680D01*
X-32072Y73726D01*
X-31997Y73776D01*
X-31925Y73829D01*
X-31856Y73885D01*
X-31789Y73944D01*
X-31724Y74005D01*
X-31663Y74070D01*
X-31604Y74137D01*
X-31548Y74206D01*
X-31495Y74278D01*
X-31445Y74353D01*
X-31399Y74429D01*
X-31356Y74507D01*
X-31317Y74587D01*
X-31281Y74669D01*
X-31248Y74752D01*
X-31220Y74837D01*
X-31195Y74922D01*
X-31173Y75009D01*
X-31156Y75097D01*
X-31143Y75185D01*
X-31133Y75274D01*
X-31127Y75363D01*
X-31125Y75452D01*
X-31127Y75541D01*
X-31133Y75630D01*
X-31143Y75719D01*
X-31156Y75807D01*
X-31173Y75895D01*
X-31195Y75982D01*
X-31220Y76067D01*
X-31248Y76152D01*
X-31281Y76235D01*
X-31317Y76317D01*
X-31356Y76397D01*
X-31399Y76475D01*
X-31445Y76551D01*
X-31495Y76626D01*
X-31548Y76698D01*
X-31604Y76767D01*
X-31663Y76834D01*
X-31724Y76899D01*
X-31789Y76960D01*
X-31856Y77019D01*
X-31925Y77075D01*
X-31997Y77128D01*
X-32072Y77178D01*
X-32148Y77224D01*
X-32226Y77267D01*
X-32306Y77306D01*
X-32388Y77342D01*
X-32471Y77375D01*
X-32556Y77403D01*
X-32641Y77428D01*
X-32728Y77450D01*
X-32816Y77467D01*
X-32904Y77480D01*
X-32993Y77490D01*
X-33082Y77496D01*
X-33171Y77498D01*
X-32762Y80772D02*
X-35217Y80772D01*
X-32762Y80772D02*
X-32683Y80770D01*
X-32604Y80764D01*
X-32525Y80755D01*
X-32447Y80742D01*
X-32370Y80724D01*
X-32294Y80704D01*
X-32219Y80679D01*
X-32145Y80651D01*
X-32072Y80620D01*
X-32001Y80584D01*
X-31932Y80546D01*
X-31865Y80504D01*
X-31800Y80459D01*
X-31737Y80411D01*
X-31676Y80360D01*
X-31619Y80306D01*
X-31563Y80250D01*
X-31511Y80191D01*
X-31461Y80129D01*
X-31415Y80065D01*
X-31371Y79999D01*
X-31331Y79931D01*
X-31295Y79861D01*
X-31261Y79789D01*
X-31231Y79715D01*
X-31205Y79641D01*
X-31182Y79565D01*
X-31164Y79488D01*
X-31148Y79411D01*
X-31137Y79332D01*
X-31129Y79254D01*
X-31125Y79175D01*
X-31125Y79095D01*
X-31129Y79016D01*
X-31137Y78938D01*
X-31148Y78859D01*
X-31164Y78782D01*
X-31182Y78705D01*
X-31205Y78629D01*
X-31231Y78555D01*
X-31261Y78481D01*
X-31295Y78409D01*
X-31331Y78339D01*
X-31371Y78271D01*
X-31415Y78205D01*
X-31461Y78141D01*
X-31511Y78079D01*
X-31563Y78020D01*
X-31619Y77964D01*
X-31676Y77910D01*
X-31737Y77859D01*
X-31800Y77811D01*
X-31865Y77766D01*
X-31932Y77724D01*
X-32001Y77686D01*
X-32072Y77650D01*
X-32145Y77619D01*
X-32219Y77591D01*
X-32294Y77566D01*
X-32370Y77546D01*
X-32447Y77528D01*
X-32525Y77515D01*
X-32604Y77506D01*
X-32683Y77500D01*
X-32762Y77498D01*
X-34399Y77498D01*
D12*
X-60198Y63500D02*
X-66548Y63500D01*
D10*
X-42482Y60706D02*
X-42482Y68072D01*
X-40435Y68072D01*
X-40346Y68070D01*
X-40257Y68064D01*
X-40168Y68054D01*
X-40080Y68041D01*
X-39992Y68024D01*
X-39905Y68002D01*
X-39820Y67977D01*
X-39735Y67949D01*
X-39652Y67916D01*
X-39570Y67880D01*
X-39490Y67841D01*
X-39412Y67798D01*
X-39336Y67752D01*
X-39261Y67702D01*
X-39189Y67649D01*
X-39120Y67593D01*
X-39053Y67534D01*
X-38988Y67473D01*
X-38927Y67408D01*
X-38868Y67341D01*
X-38812Y67272D01*
X-38759Y67200D01*
X-38709Y67125D01*
X-38663Y67049D01*
X-38620Y66971D01*
X-38581Y66891D01*
X-38545Y66809D01*
X-38512Y66726D01*
X-38484Y66641D01*
X-38459Y66556D01*
X-38437Y66469D01*
X-38420Y66381D01*
X-38407Y66293D01*
X-38397Y66204D01*
X-38391Y66115D01*
X-38389Y66026D01*
X-38391Y65937D01*
X-38397Y65848D01*
X-38407Y65759D01*
X-38420Y65671D01*
X-38437Y65583D01*
X-38459Y65496D01*
X-38484Y65411D01*
X-38512Y65326D01*
X-38545Y65243D01*
X-38581Y65161D01*
X-38620Y65081D01*
X-38663Y65003D01*
X-38709Y64927D01*
X-38759Y64852D01*
X-38812Y64780D01*
X-38868Y64711D01*
X-38927Y64644D01*
X-38988Y64579D01*
X-39053Y64518D01*
X-39120Y64459D01*
X-39189Y64403D01*
X-39261Y64350D01*
X-39336Y64300D01*
X-39412Y64254D01*
X-39490Y64211D01*
X-39570Y64172D01*
X-39652Y64136D01*
X-39735Y64103D01*
X-39820Y64075D01*
X-39905Y64050D01*
X-39992Y64028D01*
X-40080Y64011D01*
X-40168Y63998D01*
X-40257Y63988D01*
X-40346Y63982D01*
X-40435Y63980D01*
X-42482Y63980D01*
X-40026Y63980D02*
X-38389Y60706D01*
X-35217Y62343D02*
X-33581Y68072D01*
X-35217Y62343D02*
X-31125Y62343D01*
X-32353Y63980D02*
X-32353Y60706D01*
D14*
X-71438Y43538D02*
X-73938Y43538D01*
X-71438Y43538D02*
X-68938Y43538D01*
X-71438Y43538D02*
X-73938Y48538D01*
X-68938Y48538D02*
X-71438Y43538D01*
X-68938Y48538D02*
X-73938Y48538D01*
X-71438Y97750D02*
X-68938Y97750D01*
X-71438Y97750D02*
X-73938Y97750D01*
X-71438Y97750D02*
X-68938Y92750D01*
X-73938Y92750D02*
X-71438Y97750D01*
X-73938Y92750D02*
X-68938Y92750D01*
D12*
X37973Y114300D02*
X44577Y114300D01*
D10*
X60895Y109728D02*
X62531Y109728D01*
X60895Y109728D02*
X60817Y109730D01*
X60739Y109735D01*
X60662Y109745D01*
X60585Y109758D01*
X60509Y109774D01*
X60434Y109794D01*
X60360Y109818D01*
X60287Y109845D01*
X60215Y109876D01*
X60145Y109910D01*
X60077Y109947D01*
X60010Y109988D01*
X59945Y110032D01*
X59883Y110078D01*
X59823Y110128D01*
X59765Y110180D01*
X59710Y110235D01*
X59658Y110293D01*
X59608Y110353D01*
X59562Y110415D01*
X59518Y110480D01*
X59477Y110547D01*
X59440Y110615D01*
X59406Y110685D01*
X59375Y110757D01*
X59348Y110830D01*
X59324Y110904D01*
X59304Y110979D01*
X59288Y111055D01*
X59275Y111132D01*
X59265Y111209D01*
X59260Y111287D01*
X59258Y111365D01*
X59258Y115457D01*
X59260Y115537D01*
X59266Y115617D01*
X59276Y115697D01*
X59289Y115776D01*
X59307Y115855D01*
X59328Y115932D01*
X59354Y116008D01*
X59383Y116083D01*
X59415Y116157D01*
X59451Y116229D01*
X59491Y116299D01*
X59534Y116366D01*
X59580Y116432D01*
X59630Y116495D01*
X59682Y116556D01*
X59737Y116615D01*
X59796Y116670D01*
X59856Y116722D01*
X59920Y116772D01*
X59986Y116818D01*
X60053Y116861D01*
X60123Y116901D01*
X60195Y116937D01*
X60269Y116969D01*
X60343Y116998D01*
X60420Y117024D01*
X60497Y117045D01*
X60576Y117063D01*
X60655Y117076D01*
X60735Y117086D01*
X60815Y117092D01*
X60895Y117094D01*
X62531Y117094D01*
X65377Y117094D02*
X65377Y116276D01*
X65377Y117094D02*
X69469Y117094D01*
X67423Y109728D01*
D13*
X-110546Y10033D02*
X-113792Y10033D01*
X-110546Y10033D02*
X-110433Y10035D01*
X-110320Y10041D01*
X-110207Y10051D01*
X-110094Y10065D01*
X-109982Y10082D01*
X-109871Y10104D01*
X-109761Y10129D01*
X-109651Y10159D01*
X-109543Y10192D01*
X-109436Y10229D01*
X-109330Y10269D01*
X-109226Y10314D01*
X-109123Y10362D01*
X-109022Y10413D01*
X-108923Y10468D01*
X-108826Y10526D01*
X-108731Y10588D01*
X-108638Y10653D01*
X-108548Y10721D01*
X-108460Y10792D01*
X-108374Y10867D01*
X-108291Y10944D01*
X-108211Y11024D01*
X-108134Y11107D01*
X-108059Y11193D01*
X-107988Y11281D01*
X-107920Y11371D01*
X-107855Y11464D01*
X-107793Y11559D01*
X-107735Y11656D01*
X-107680Y11755D01*
X-107629Y11856D01*
X-107581Y11959D01*
X-107536Y12063D01*
X-107496Y12169D01*
X-107459Y12276D01*
X-107426Y12384D01*
X-107396Y12494D01*
X-107371Y12604D01*
X-107349Y12715D01*
X-107332Y12827D01*
X-107318Y12940D01*
X-107308Y13053D01*
X-107302Y13166D01*
X-107300Y13279D01*
X-107302Y13392D01*
X-107308Y13505D01*
X-107318Y13618D01*
X-107332Y13731D01*
X-107349Y13843D01*
X-107371Y13954D01*
X-107396Y14064D01*
X-107426Y14174D01*
X-107459Y14282D01*
X-107496Y14389D01*
X-107536Y14495D01*
X-107581Y14599D01*
X-107629Y14702D01*
X-107680Y14803D01*
X-107735Y14902D01*
X-107793Y14999D01*
X-107855Y15094D01*
X-107920Y15187D01*
X-107988Y15277D01*
X-108059Y15365D01*
X-108134Y15451D01*
X-108211Y15534D01*
X-108291Y15614D01*
X-108374Y15691D01*
X-108460Y15766D01*
X-108548Y15837D01*
X-108638Y15905D01*
X-108731Y15970D01*
X-108826Y16032D01*
X-108923Y16090D01*
X-109022Y16145D01*
X-109123Y16196D01*
X-109226Y16244D01*
X-109330Y16289D01*
X-109436Y16329D01*
X-109543Y16366D01*
X-109651Y16399D01*
X-109761Y16429D01*
X-109871Y16454D01*
X-109982Y16476D01*
X-110094Y16493D01*
X-110207Y16507D01*
X-110320Y16517D01*
X-110433Y16523D01*
X-110546Y16525D01*
X-109897Y21717D02*
X-113792Y21717D01*
X-109897Y21717D02*
X-109796Y21715D01*
X-109696Y21709D01*
X-109596Y21699D01*
X-109496Y21686D01*
X-109397Y21668D01*
X-109298Y21647D01*
X-109201Y21622D01*
X-109104Y21593D01*
X-109009Y21560D01*
X-108915Y21524D01*
X-108823Y21484D01*
X-108732Y21441D01*
X-108643Y21394D01*
X-108556Y21344D01*
X-108470Y21290D01*
X-108387Y21233D01*
X-108307Y21173D01*
X-108228Y21110D01*
X-108152Y21043D01*
X-108079Y20974D01*
X-108009Y20902D01*
X-107941Y20828D01*
X-107876Y20751D01*
X-107815Y20671D01*
X-107756Y20589D01*
X-107701Y20505D01*
X-107649Y20419D01*
X-107600Y20331D01*
X-107555Y20241D01*
X-107513Y20149D01*
X-107475Y20056D01*
X-107441Y19961D01*
X-107410Y19866D01*
X-107383Y19769D01*
X-107360Y19671D01*
X-107340Y19572D01*
X-107325Y19472D01*
X-107313Y19372D01*
X-107305Y19272D01*
X-107301Y19171D01*
X-107301Y19071D01*
X-107305Y18970D01*
X-107313Y18870D01*
X-107325Y18770D01*
X-107340Y18670D01*
X-107360Y18571D01*
X-107383Y18473D01*
X-107410Y18376D01*
X-107441Y18281D01*
X-107475Y18186D01*
X-107513Y18093D01*
X-107555Y18001D01*
X-107600Y17911D01*
X-107649Y17823D01*
X-107701Y17737D01*
X-107756Y17653D01*
X-107815Y17571D01*
X-107876Y17491D01*
X-107941Y17414D01*
X-108009Y17340D01*
X-108079Y17268D01*
X-108152Y17199D01*
X-108228Y17132D01*
X-108307Y17069D01*
X-108387Y17009D01*
X-108470Y16952D01*
X-108556Y16898D01*
X-108643Y16848D01*
X-108732Y16801D01*
X-108823Y16758D01*
X-108915Y16718D01*
X-109009Y16682D01*
X-109104Y16649D01*
X-109201Y16620D01*
X-109298Y16595D01*
X-109397Y16574D01*
X-109496Y16556D01*
X-109596Y16543D01*
X-109696Y16533D01*
X-109796Y16527D01*
X-109897Y16525D01*
X-109897Y16524D02*
X-112494Y16524D01*
X-103011Y21717D02*
X-99116Y10033D01*
X-95222Y21717D01*
X-90932Y10033D02*
X-87687Y10033D01*
X-87574Y10035D01*
X-87461Y10041D01*
X-87348Y10051D01*
X-87235Y10065D01*
X-87123Y10082D01*
X-87012Y10104D01*
X-86902Y10129D01*
X-86792Y10159D01*
X-86684Y10192D01*
X-86577Y10229D01*
X-86471Y10269D01*
X-86367Y10314D01*
X-86264Y10362D01*
X-86163Y10413D01*
X-86064Y10468D01*
X-85967Y10526D01*
X-85872Y10588D01*
X-85779Y10653D01*
X-85689Y10721D01*
X-85601Y10792D01*
X-85515Y10867D01*
X-85432Y10944D01*
X-85352Y11024D01*
X-85275Y11107D01*
X-85200Y11193D01*
X-85129Y11281D01*
X-85061Y11371D01*
X-84996Y11464D01*
X-84934Y11559D01*
X-84876Y11656D01*
X-84821Y11755D01*
X-84770Y11856D01*
X-84722Y11959D01*
X-84677Y12063D01*
X-84637Y12169D01*
X-84600Y12276D01*
X-84567Y12384D01*
X-84537Y12494D01*
X-84512Y12604D01*
X-84490Y12715D01*
X-84473Y12827D01*
X-84459Y12940D01*
X-84449Y13053D01*
X-84443Y13166D01*
X-84441Y13279D01*
X-84443Y13392D01*
X-84449Y13505D01*
X-84459Y13618D01*
X-84473Y13731D01*
X-84490Y13843D01*
X-84512Y13954D01*
X-84537Y14064D01*
X-84567Y14174D01*
X-84600Y14282D01*
X-84637Y14389D01*
X-84677Y14495D01*
X-84722Y14599D01*
X-84770Y14702D01*
X-84821Y14803D01*
X-84876Y14902D01*
X-84934Y14999D01*
X-84996Y15094D01*
X-85061Y15187D01*
X-85129Y15277D01*
X-85200Y15365D01*
X-85275Y15451D01*
X-85352Y15534D01*
X-85432Y15614D01*
X-85515Y15691D01*
X-85601Y15766D01*
X-85689Y15837D01*
X-85779Y15905D01*
X-85872Y15970D01*
X-85967Y16032D01*
X-86064Y16090D01*
X-86163Y16145D01*
X-86264Y16196D01*
X-86367Y16244D01*
X-86471Y16289D01*
X-86577Y16329D01*
X-86684Y16366D01*
X-86792Y16399D01*
X-86902Y16429D01*
X-87012Y16454D01*
X-87123Y16476D01*
X-87235Y16493D01*
X-87348Y16507D01*
X-87461Y16517D01*
X-87574Y16523D01*
X-87687Y16525D01*
X-87037Y21717D02*
X-90932Y21717D01*
X-87037Y21717D02*
X-86936Y21715D01*
X-86836Y21709D01*
X-86736Y21699D01*
X-86636Y21686D01*
X-86537Y21668D01*
X-86438Y21647D01*
X-86341Y21622D01*
X-86244Y21593D01*
X-86149Y21560D01*
X-86055Y21524D01*
X-85963Y21484D01*
X-85872Y21441D01*
X-85783Y21394D01*
X-85696Y21344D01*
X-85610Y21290D01*
X-85527Y21233D01*
X-85447Y21173D01*
X-85368Y21110D01*
X-85292Y21043D01*
X-85219Y20974D01*
X-85149Y20902D01*
X-85081Y20828D01*
X-85016Y20751D01*
X-84955Y20671D01*
X-84896Y20589D01*
X-84841Y20505D01*
X-84789Y20419D01*
X-84740Y20331D01*
X-84695Y20241D01*
X-84653Y20149D01*
X-84615Y20056D01*
X-84581Y19961D01*
X-84550Y19866D01*
X-84523Y19769D01*
X-84500Y19671D01*
X-84480Y19572D01*
X-84465Y19472D01*
X-84453Y19372D01*
X-84445Y19272D01*
X-84441Y19171D01*
X-84441Y19071D01*
X-84445Y18970D01*
X-84453Y18870D01*
X-84465Y18770D01*
X-84480Y18670D01*
X-84500Y18571D01*
X-84523Y18473D01*
X-84550Y18376D01*
X-84581Y18281D01*
X-84615Y18186D01*
X-84653Y18093D01*
X-84695Y18001D01*
X-84740Y17911D01*
X-84789Y17823D01*
X-84841Y17737D01*
X-84896Y17653D01*
X-84955Y17571D01*
X-85016Y17491D01*
X-85081Y17414D01*
X-85149Y17340D01*
X-85219Y17268D01*
X-85292Y17199D01*
X-85368Y17132D01*
X-85447Y17069D01*
X-85527Y17009D01*
X-85610Y16952D01*
X-85696Y16898D01*
X-85783Y16848D01*
X-85872Y16801D01*
X-85963Y16758D01*
X-86055Y16718D01*
X-86149Y16682D01*
X-86244Y16649D01*
X-86341Y16620D01*
X-86438Y16595D01*
X-86537Y16574D01*
X-86636Y16556D01*
X-86736Y16543D01*
X-86836Y16533D01*
X-86936Y16527D01*
X-87037Y16525D01*
X-87037Y16524D02*
X-89634Y16524D01*
X-107301Y54624D02*
X-109248Y54624D01*
X-107301Y54624D02*
X-107301Y48133D01*
X-111196Y48133D01*
X-111295Y48135D01*
X-111395Y48141D01*
X-111494Y48150D01*
X-111592Y48163D01*
X-111690Y48180D01*
X-111788Y48201D01*
X-111884Y48226D01*
X-111979Y48254D01*
X-112073Y48286D01*
X-112166Y48321D01*
X-112258Y48360D01*
X-112348Y48403D01*
X-112436Y48448D01*
X-112523Y48498D01*
X-112607Y48550D01*
X-112690Y48606D01*
X-112770Y48664D01*
X-112848Y48726D01*
X-112923Y48791D01*
X-112996Y48859D01*
X-113066Y48929D01*
X-113134Y49002D01*
X-113199Y49077D01*
X-113261Y49155D01*
X-113319Y49235D01*
X-113375Y49318D01*
X-113427Y49402D01*
X-113477Y49489D01*
X-113522Y49577D01*
X-113565Y49667D01*
X-113604Y49759D01*
X-113639Y49852D01*
X-113671Y49946D01*
X-113699Y50041D01*
X-113724Y50137D01*
X-113745Y50235D01*
X-113762Y50333D01*
X-113775Y50431D01*
X-113784Y50530D01*
X-113790Y50630D01*
X-113792Y50729D01*
X-113792Y57221D01*
X-113790Y57320D01*
X-113784Y57420D01*
X-113775Y57519D01*
X-113762Y57617D01*
X-113745Y57715D01*
X-113724Y57813D01*
X-113699Y57909D01*
X-113671Y58004D01*
X-113639Y58098D01*
X-113604Y58191D01*
X-113565Y58283D01*
X-113522Y58373D01*
X-113477Y58461D01*
X-113427Y58548D01*
X-113375Y58632D01*
X-113319Y58715D01*
X-113261Y58795D01*
X-113199Y58873D01*
X-113134Y58948D01*
X-113066Y59021D01*
X-112996Y59091D01*
X-112923Y59159D01*
X-112848Y59224D01*
X-112770Y59286D01*
X-112690Y59344D01*
X-112607Y59400D01*
X-112523Y59452D01*
X-112436Y59502D01*
X-112348Y59547D01*
X-112258Y59590D01*
X-112166Y59629D01*
X-112073Y59664D01*
X-111979Y59696D01*
X-111884Y59724D01*
X-111788Y59749D01*
X-111690Y59770D01*
X-111592Y59787D01*
X-111494Y59800D01*
X-111395Y59809D01*
X-111295Y59815D01*
X-111196Y59817D01*
X-107301Y59817D01*
X-101600Y59817D02*
X-101600Y48133D01*
X-95109Y48133D02*
X-101600Y59817D01*
X-95109Y59817D02*
X-95109Y48133D01*
X-89408Y48133D02*
X-89408Y59817D01*
X-86163Y59817D01*
X-86050Y59815D01*
X-85937Y59809D01*
X-85824Y59799D01*
X-85711Y59785D01*
X-85599Y59768D01*
X-85488Y59746D01*
X-85378Y59721D01*
X-85268Y59691D01*
X-85160Y59658D01*
X-85053Y59621D01*
X-84947Y59581D01*
X-84843Y59536D01*
X-84740Y59488D01*
X-84639Y59437D01*
X-84540Y59382D01*
X-84443Y59324D01*
X-84348Y59262D01*
X-84255Y59197D01*
X-84165Y59129D01*
X-84077Y59058D01*
X-83991Y58983D01*
X-83908Y58906D01*
X-83828Y58826D01*
X-83751Y58743D01*
X-83676Y58657D01*
X-83605Y58569D01*
X-83537Y58479D01*
X-83472Y58386D01*
X-83410Y58291D01*
X-83352Y58194D01*
X-83297Y58095D01*
X-83246Y57994D01*
X-83198Y57891D01*
X-83153Y57787D01*
X-83113Y57681D01*
X-83076Y57574D01*
X-83043Y57466D01*
X-83013Y57356D01*
X-82988Y57246D01*
X-82966Y57135D01*
X-82949Y57023D01*
X-82935Y56910D01*
X-82925Y56797D01*
X-82919Y56684D01*
X-82917Y56571D01*
X-82917Y51379D01*
X-82919Y51266D01*
X-82925Y51153D01*
X-82935Y51040D01*
X-82949Y50927D01*
X-82966Y50815D01*
X-82988Y50704D01*
X-83013Y50594D01*
X-83043Y50484D01*
X-83076Y50376D01*
X-83113Y50269D01*
X-83153Y50163D01*
X-83198Y50059D01*
X-83246Y49956D01*
X-83297Y49855D01*
X-83352Y49756D01*
X-83410Y49659D01*
X-83472Y49564D01*
X-83537Y49471D01*
X-83605Y49381D01*
X-83676Y49293D01*
X-83751Y49207D01*
X-83828Y49124D01*
X-83908Y49044D01*
X-83991Y48967D01*
X-84077Y48892D01*
X-84165Y48821D01*
X-84255Y48753D01*
X-84348Y48688D01*
X-84443Y48626D01*
X-84540Y48568D01*
X-84639Y48513D01*
X-84740Y48462D01*
X-84843Y48414D01*
X-84947Y48369D01*
X-85053Y48329D01*
X-85160Y48292D01*
X-85268Y48259D01*
X-85378Y48229D01*
X-85488Y48204D01*
X-85599Y48182D01*
X-85711Y48165D01*
X-85824Y48151D01*
X-85937Y48141D01*
X-86050Y48135D01*
X-86163Y48133D01*
X-89408Y48133D01*
D12*
X82550Y98298D02*
X82550Y104902D01*
D10*
X74422Y97456D02*
X74422Y95820D01*
X74420Y95742D01*
X74415Y95664D01*
X74405Y95587D01*
X74392Y95510D01*
X74376Y95434D01*
X74356Y95359D01*
X74332Y95285D01*
X74305Y95212D01*
X74274Y95140D01*
X74240Y95070D01*
X74203Y95002D01*
X74162Y94935D01*
X74118Y94870D01*
X74072Y94808D01*
X74022Y94748D01*
X73970Y94690D01*
X73915Y94635D01*
X73857Y94583D01*
X73797Y94533D01*
X73735Y94487D01*
X73670Y94443D01*
X73604Y94402D01*
X73535Y94365D01*
X73465Y94331D01*
X73393Y94300D01*
X73320Y94273D01*
X73246Y94249D01*
X73171Y94229D01*
X73095Y94213D01*
X73018Y94200D01*
X72941Y94190D01*
X72863Y94185D01*
X72785Y94183D01*
X68693Y94183D01*
X68613Y94185D01*
X68533Y94191D01*
X68453Y94201D01*
X68374Y94214D01*
X68295Y94232D01*
X68218Y94253D01*
X68142Y94279D01*
X68067Y94308D01*
X67993Y94340D01*
X67921Y94376D01*
X67851Y94416D01*
X67784Y94459D01*
X67718Y94505D01*
X67655Y94555D01*
X67594Y94607D01*
X67535Y94662D01*
X67480Y94721D01*
X67428Y94781D01*
X67378Y94845D01*
X67332Y94910D01*
X67289Y94978D01*
X67249Y95048D01*
X67213Y95120D01*
X67181Y95194D01*
X67152Y95268D01*
X67127Y95345D01*
X67105Y95422D01*
X67087Y95501D01*
X67074Y95580D01*
X67064Y95659D01*
X67058Y95740D01*
X67056Y95820D01*
X67056Y97456D01*
X72376Y100302D02*
X72287Y100304D01*
X72198Y100310D01*
X72109Y100320D01*
X72021Y100333D01*
X71933Y100350D01*
X71846Y100372D01*
X71761Y100397D01*
X71676Y100425D01*
X71593Y100458D01*
X71511Y100494D01*
X71431Y100533D01*
X71353Y100576D01*
X71277Y100622D01*
X71202Y100672D01*
X71130Y100725D01*
X71061Y100781D01*
X70994Y100840D01*
X70929Y100901D01*
X70868Y100966D01*
X70809Y101033D01*
X70753Y101102D01*
X70700Y101174D01*
X70650Y101249D01*
X70604Y101325D01*
X70561Y101403D01*
X70522Y101483D01*
X70486Y101565D01*
X70453Y101648D01*
X70425Y101733D01*
X70400Y101818D01*
X70378Y101905D01*
X70361Y101993D01*
X70348Y102081D01*
X70338Y102170D01*
X70332Y102259D01*
X70330Y102348D01*
X70332Y102437D01*
X70338Y102526D01*
X70348Y102615D01*
X70361Y102703D01*
X70378Y102791D01*
X70400Y102878D01*
X70425Y102963D01*
X70453Y103048D01*
X70486Y103131D01*
X70522Y103213D01*
X70561Y103293D01*
X70604Y103371D01*
X70650Y103447D01*
X70700Y103522D01*
X70753Y103594D01*
X70809Y103663D01*
X70868Y103730D01*
X70929Y103795D01*
X70994Y103856D01*
X71061Y103915D01*
X71130Y103971D01*
X71202Y104024D01*
X71277Y104074D01*
X71353Y104120D01*
X71431Y104163D01*
X71511Y104202D01*
X71593Y104238D01*
X71676Y104271D01*
X71761Y104299D01*
X71846Y104324D01*
X71933Y104346D01*
X72021Y104363D01*
X72109Y104376D01*
X72198Y104386D01*
X72287Y104392D01*
X72376Y104394D01*
X72465Y104392D01*
X72554Y104386D01*
X72643Y104376D01*
X72731Y104363D01*
X72819Y104346D01*
X72906Y104324D01*
X72991Y104299D01*
X73076Y104271D01*
X73159Y104238D01*
X73241Y104202D01*
X73321Y104163D01*
X73399Y104120D01*
X73475Y104074D01*
X73550Y104024D01*
X73622Y103971D01*
X73691Y103915D01*
X73758Y103856D01*
X73823Y103795D01*
X73884Y103730D01*
X73943Y103663D01*
X73999Y103594D01*
X74052Y103522D01*
X74102Y103447D01*
X74148Y103371D01*
X74191Y103293D01*
X74230Y103213D01*
X74266Y103131D01*
X74299Y103048D01*
X74327Y102963D01*
X74352Y102878D01*
X74374Y102791D01*
X74391Y102703D01*
X74404Y102615D01*
X74414Y102526D01*
X74420Y102437D01*
X74422Y102348D01*
X74420Y102259D01*
X74414Y102170D01*
X74404Y102081D01*
X74391Y101993D01*
X74374Y101905D01*
X74352Y101818D01*
X74327Y101733D01*
X74299Y101648D01*
X74266Y101565D01*
X74230Y101483D01*
X74191Y101403D01*
X74148Y101325D01*
X74102Y101249D01*
X74052Y101174D01*
X73999Y101102D01*
X73943Y101033D01*
X73884Y100966D01*
X73823Y100901D01*
X73758Y100840D01*
X73691Y100781D01*
X73622Y100725D01*
X73550Y100672D01*
X73475Y100622D01*
X73399Y100576D01*
X73321Y100533D01*
X73241Y100494D01*
X73159Y100458D01*
X73076Y100425D01*
X72991Y100397D01*
X72906Y100372D01*
X72819Y100350D01*
X72731Y100333D01*
X72643Y100320D01*
X72554Y100310D01*
X72465Y100304D01*
X72376Y100302D01*
X68693Y100711D02*
X68614Y100713D01*
X68535Y100719D01*
X68456Y100728D01*
X68378Y100741D01*
X68301Y100759D01*
X68225Y100779D01*
X68150Y100804D01*
X68076Y100832D01*
X68003Y100863D01*
X67932Y100899D01*
X67863Y100937D01*
X67796Y100979D01*
X67731Y101024D01*
X67668Y101072D01*
X67607Y101123D01*
X67550Y101177D01*
X67494Y101233D01*
X67442Y101292D01*
X67392Y101354D01*
X67346Y101418D01*
X67302Y101484D01*
X67262Y101552D01*
X67226Y101622D01*
X67192Y101694D01*
X67162Y101768D01*
X67136Y101842D01*
X67113Y101918D01*
X67095Y101995D01*
X67079Y102072D01*
X67068Y102151D01*
X67060Y102229D01*
X67056Y102308D01*
X67056Y102388D01*
X67060Y102467D01*
X67068Y102545D01*
X67079Y102624D01*
X67095Y102701D01*
X67113Y102778D01*
X67136Y102854D01*
X67162Y102928D01*
X67192Y103002D01*
X67226Y103074D01*
X67262Y103144D01*
X67302Y103212D01*
X67346Y103278D01*
X67392Y103342D01*
X67442Y103404D01*
X67494Y103463D01*
X67550Y103519D01*
X67607Y103573D01*
X67668Y103624D01*
X67731Y103672D01*
X67796Y103717D01*
X67863Y103759D01*
X67932Y103797D01*
X68003Y103833D01*
X68076Y103864D01*
X68150Y103892D01*
X68225Y103917D01*
X68301Y103937D01*
X68378Y103955D01*
X68456Y103968D01*
X68535Y103977D01*
X68614Y103983D01*
X68693Y103985D01*
X68772Y103983D01*
X68851Y103977D01*
X68930Y103968D01*
X69008Y103955D01*
X69085Y103937D01*
X69161Y103917D01*
X69236Y103892D01*
X69310Y103864D01*
X69383Y103833D01*
X69454Y103797D01*
X69523Y103759D01*
X69590Y103717D01*
X69655Y103672D01*
X69718Y103624D01*
X69779Y103573D01*
X69836Y103519D01*
X69892Y103463D01*
X69944Y103404D01*
X69994Y103342D01*
X70040Y103278D01*
X70084Y103212D01*
X70124Y103144D01*
X70160Y103074D01*
X70194Y103002D01*
X70224Y102928D01*
X70250Y102854D01*
X70273Y102778D01*
X70291Y102701D01*
X70307Y102624D01*
X70318Y102545D01*
X70326Y102467D01*
X70330Y102388D01*
X70330Y102308D01*
X70326Y102229D01*
X70318Y102151D01*
X70307Y102072D01*
X70291Y101995D01*
X70273Y101918D01*
X70250Y101842D01*
X70224Y101768D01*
X70194Y101694D01*
X70160Y101622D01*
X70124Y101552D01*
X70084Y101484D01*
X70040Y101418D01*
X69994Y101354D01*
X69944Y101292D01*
X69892Y101233D01*
X69836Y101177D01*
X69779Y101123D01*
X69718Y101072D01*
X69655Y101024D01*
X69590Y100979D01*
X69523Y100937D01*
X69454Y100899D01*
X69383Y100863D01*
X69310Y100832D01*
X69236Y100804D01*
X69161Y100779D01*
X69085Y100759D01*
X69008Y100741D01*
X68930Y100728D01*
X68851Y100719D01*
X68772Y100713D01*
X68693Y100711D01*
D12*
X-6223Y6350D02*
X-12827Y6350D01*
D10*
X-32858Y3556D02*
X-34495Y3556D01*
X-34573Y3558D01*
X-34651Y3563D01*
X-34728Y3573D01*
X-34805Y3586D01*
X-34881Y3602D01*
X-34956Y3622D01*
X-35030Y3646D01*
X-35103Y3673D01*
X-35175Y3704D01*
X-35245Y3738D01*
X-35314Y3775D01*
X-35380Y3816D01*
X-35445Y3860D01*
X-35507Y3906D01*
X-35567Y3956D01*
X-35625Y4008D01*
X-35680Y4063D01*
X-35732Y4121D01*
X-35782Y4181D01*
X-35828Y4243D01*
X-35872Y4308D01*
X-35913Y4375D01*
X-35950Y4443D01*
X-35984Y4513D01*
X-36015Y4585D01*
X-36042Y4658D01*
X-36066Y4732D01*
X-36086Y4807D01*
X-36102Y4883D01*
X-36115Y4960D01*
X-36125Y5037D01*
X-36130Y5115D01*
X-36132Y5193D01*
X-36132Y9285D01*
X-36130Y9363D01*
X-36125Y9441D01*
X-36115Y9518D01*
X-36102Y9595D01*
X-36086Y9671D01*
X-36066Y9746D01*
X-36042Y9820D01*
X-36015Y9893D01*
X-35984Y9965D01*
X-35950Y10035D01*
X-35913Y10104D01*
X-35872Y10170D01*
X-35828Y10235D01*
X-35782Y10297D01*
X-35732Y10357D01*
X-35680Y10415D01*
X-35625Y10470D01*
X-35567Y10522D01*
X-35507Y10572D01*
X-35445Y10618D01*
X-35380Y10662D01*
X-35314Y10703D01*
X-35245Y10740D01*
X-35175Y10774D01*
X-35103Y10805D01*
X-35030Y10832D01*
X-34956Y10856D01*
X-34881Y10876D01*
X-34805Y10892D01*
X-34728Y10905D01*
X-34651Y10915D01*
X-34573Y10920D01*
X-34495Y10922D01*
X-32858Y10922D01*
X-28376Y6830D02*
X-25920Y6830D01*
X-28376Y6830D02*
X-28454Y6832D01*
X-28532Y6837D01*
X-28609Y6847D01*
X-28686Y6860D01*
X-28762Y6876D01*
X-28837Y6896D01*
X-28911Y6920D01*
X-28984Y6947D01*
X-29056Y6978D01*
X-29126Y7012D01*
X-29195Y7049D01*
X-29261Y7090D01*
X-29326Y7134D01*
X-29388Y7180D01*
X-29448Y7230D01*
X-29506Y7282D01*
X-29561Y7337D01*
X-29613Y7395D01*
X-29663Y7455D01*
X-29709Y7517D01*
X-29753Y7582D01*
X-29794Y7649D01*
X-29831Y7717D01*
X-29865Y7787D01*
X-29896Y7859D01*
X-29923Y7932D01*
X-29947Y8006D01*
X-29967Y8081D01*
X-29983Y8157D01*
X-29996Y8234D01*
X-30006Y8311D01*
X-30011Y8389D01*
X-30013Y8467D01*
X-30012Y8467D02*
X-30012Y8876D01*
X-30010Y8965D01*
X-30004Y9054D01*
X-29994Y9143D01*
X-29981Y9231D01*
X-29964Y9319D01*
X-29942Y9406D01*
X-29917Y9491D01*
X-29889Y9576D01*
X-29856Y9659D01*
X-29820Y9741D01*
X-29781Y9821D01*
X-29738Y9899D01*
X-29692Y9975D01*
X-29642Y10050D01*
X-29589Y10122D01*
X-29533Y10191D01*
X-29474Y10258D01*
X-29413Y10323D01*
X-29348Y10384D01*
X-29281Y10443D01*
X-29212Y10499D01*
X-29140Y10552D01*
X-29065Y10602D01*
X-28989Y10648D01*
X-28911Y10691D01*
X-28831Y10730D01*
X-28749Y10766D01*
X-28666Y10799D01*
X-28581Y10827D01*
X-28496Y10852D01*
X-28409Y10874D01*
X-28321Y10891D01*
X-28233Y10904D01*
X-28144Y10914D01*
X-28055Y10920D01*
X-27966Y10922D01*
X-27877Y10920D01*
X-27788Y10914D01*
X-27699Y10904D01*
X-27611Y10891D01*
X-27523Y10874D01*
X-27436Y10852D01*
X-27351Y10827D01*
X-27266Y10799D01*
X-27183Y10766D01*
X-27101Y10730D01*
X-27021Y10691D01*
X-26943Y10648D01*
X-26867Y10602D01*
X-26792Y10552D01*
X-26720Y10499D01*
X-26651Y10443D01*
X-26584Y10384D01*
X-26519Y10323D01*
X-26458Y10258D01*
X-26399Y10191D01*
X-26343Y10122D01*
X-26290Y10050D01*
X-26240Y9975D01*
X-26194Y9899D01*
X-26151Y9821D01*
X-26112Y9741D01*
X-26076Y9659D01*
X-26043Y9576D01*
X-26015Y9491D01*
X-25990Y9406D01*
X-25968Y9319D01*
X-25951Y9231D01*
X-25938Y9143D01*
X-25928Y9054D01*
X-25922Y8965D01*
X-25920Y8876D01*
X-25920Y6830D01*
X-25922Y6718D01*
X-25928Y6607D01*
X-25937Y6495D01*
X-25950Y6384D01*
X-25968Y6274D01*
X-25988Y6164D01*
X-26013Y6055D01*
X-26041Y5947D01*
X-26073Y5840D01*
X-26109Y5734D01*
X-26148Y5629D01*
X-26191Y5526D01*
X-26237Y5424D01*
X-26287Y5324D01*
X-26340Y5225D01*
X-26397Y5129D01*
X-26456Y5034D01*
X-26519Y4942D01*
X-26585Y4852D01*
X-26654Y4764D01*
X-26726Y4678D01*
X-26801Y4595D01*
X-26879Y4515D01*
X-26959Y4437D01*
X-27042Y4362D01*
X-27128Y4290D01*
X-27216Y4221D01*
X-27306Y4155D01*
X-27398Y4092D01*
X-27493Y4033D01*
X-27589Y3976D01*
X-27688Y3923D01*
X-27788Y3873D01*
X-27890Y3827D01*
X-27993Y3784D01*
X-28098Y3745D01*
X-28204Y3709D01*
X-28311Y3677D01*
X-28419Y3649D01*
X-28528Y3624D01*
X-28638Y3604D01*
X-28748Y3586D01*
X-28859Y3573D01*
X-28971Y3564D01*
X-29082Y3558D01*
X-29194Y3556D01*
D15*
X-6033Y125667D02*
X7684Y125667D01*
D10*
X-26369Y122428D02*
X-28005Y122428D01*
X-28083Y122430D01*
X-28161Y122435D01*
X-28238Y122445D01*
X-28315Y122458D01*
X-28391Y122474D01*
X-28466Y122494D01*
X-28540Y122518D01*
X-28613Y122545D01*
X-28685Y122576D01*
X-28755Y122610D01*
X-28824Y122647D01*
X-28890Y122688D01*
X-28955Y122732D01*
X-29017Y122778D01*
X-29077Y122828D01*
X-29135Y122880D01*
X-29190Y122935D01*
X-29242Y122993D01*
X-29292Y123053D01*
X-29338Y123115D01*
X-29382Y123180D01*
X-29423Y123247D01*
X-29460Y123315D01*
X-29494Y123385D01*
X-29525Y123457D01*
X-29552Y123530D01*
X-29576Y123604D01*
X-29596Y123679D01*
X-29612Y123755D01*
X-29625Y123832D01*
X-29635Y123909D01*
X-29640Y123987D01*
X-29642Y124065D01*
X-29642Y128157D01*
X-29640Y128235D01*
X-29635Y128313D01*
X-29625Y128390D01*
X-29612Y128467D01*
X-29596Y128543D01*
X-29576Y128618D01*
X-29552Y128692D01*
X-29525Y128765D01*
X-29494Y128837D01*
X-29460Y128907D01*
X-29423Y128976D01*
X-29382Y129042D01*
X-29338Y129107D01*
X-29292Y129169D01*
X-29242Y129229D01*
X-29190Y129287D01*
X-29135Y129342D01*
X-29077Y129394D01*
X-29017Y129444D01*
X-28955Y129490D01*
X-28890Y129534D01*
X-28824Y129575D01*
X-28755Y129612D01*
X-28685Y129646D01*
X-28613Y129677D01*
X-28540Y129704D01*
X-28466Y129728D01*
X-28391Y129748D01*
X-28315Y129764D01*
X-28238Y129777D01*
X-28161Y129787D01*
X-28083Y129792D01*
X-28005Y129794D01*
X-26369Y129794D01*
X-23523Y122428D02*
X-21068Y122428D01*
X-20988Y122430D01*
X-20908Y122436D01*
X-20828Y122446D01*
X-20749Y122459D01*
X-20670Y122477D01*
X-20593Y122498D01*
X-20517Y122524D01*
X-20442Y122553D01*
X-20368Y122585D01*
X-20296Y122621D01*
X-20226Y122661D01*
X-20159Y122704D01*
X-20093Y122750D01*
X-20030Y122800D01*
X-19969Y122852D01*
X-19910Y122907D01*
X-19855Y122966D01*
X-19803Y123026D01*
X-19753Y123090D01*
X-19707Y123155D01*
X-19664Y123223D01*
X-19624Y123293D01*
X-19588Y123365D01*
X-19556Y123439D01*
X-19527Y123513D01*
X-19502Y123590D01*
X-19480Y123667D01*
X-19462Y123746D01*
X-19449Y123825D01*
X-19439Y123904D01*
X-19433Y123985D01*
X-19431Y124065D01*
X-19431Y124883D01*
X-19433Y124961D01*
X-19438Y125039D01*
X-19448Y125116D01*
X-19461Y125193D01*
X-19477Y125269D01*
X-19497Y125344D01*
X-19521Y125418D01*
X-19548Y125491D01*
X-19579Y125563D01*
X-19613Y125633D01*
X-19650Y125702D01*
X-19691Y125768D01*
X-19735Y125833D01*
X-19781Y125895D01*
X-19831Y125955D01*
X-19883Y126013D01*
X-19938Y126068D01*
X-19996Y126120D01*
X-20056Y126170D01*
X-20118Y126216D01*
X-20183Y126260D01*
X-20250Y126301D01*
X-20318Y126338D01*
X-20388Y126372D01*
X-20460Y126403D01*
X-20533Y126430D01*
X-20607Y126454D01*
X-20682Y126474D01*
X-20758Y126490D01*
X-20835Y126503D01*
X-20912Y126513D01*
X-20990Y126518D01*
X-21068Y126520D01*
X-23523Y126520D01*
X-23523Y129794D01*
X-19431Y129794D01*
M02*
