G04 EAGLE Gerber RS-274X export*
G75*
%MOMM*%
%FSLAX34Y34*%
%LPD*%
%INSoldermask Top*%
%IPPOS*%
%AMOC8*
5,1,8,0,0,1.08239X$1,22.5*%
G01*
%ADD10C,2.203200*%
%ADD11R,2.503200X1.403200*%
%ADD12C,1.303200*%
%ADD13R,0.603200X1.903200*%
%ADD14R,1.303200X1.203200*%
%ADD15R,1.203200X1.303200*%
%ADD16C,1.173478*%
%ADD17R,1.003200X1.003200*%
%ADD18R,1.503200X1.703200*%


D10*
X-60325Y12700D03*
X-60325Y131763D03*
X74613Y131763D03*
X73025Y12700D03*
D11*
X110750Y108025D03*
X110750Y83025D03*
X110750Y63025D03*
X110750Y38025D03*
D12*
X138250Y95525D03*
X138250Y50525D03*
D13*
X-37488Y25325D03*
X-30988Y25325D03*
X-24488Y25325D03*
X-17988Y25325D03*
X-11488Y25325D03*
X-4988Y25325D03*
X1513Y25325D03*
X8013Y25325D03*
X14513Y25325D03*
X21013Y25325D03*
X27513Y25325D03*
X34013Y25325D03*
X40513Y25325D03*
X47013Y25325D03*
X47013Y95325D03*
X40513Y95325D03*
X34013Y95325D03*
X27513Y95325D03*
X21013Y95325D03*
X14513Y95325D03*
X8013Y95325D03*
X1513Y95325D03*
X-4988Y95325D03*
X-11488Y95325D03*
X-17988Y95325D03*
X-24488Y95325D03*
X-30988Y95325D03*
X-37488Y95325D03*
D14*
X66113Y79375D03*
X83113Y79375D03*
X66113Y36513D03*
X83113Y36513D03*
D15*
X83113Y50800D03*
X66113Y50800D03*
X83113Y65088D03*
X66113Y65088D03*
D14*
X10088Y114300D03*
X-6913Y114300D03*
D16*
X-125501Y87274D02*
X-153899Y87274D01*
X-153899Y96876D01*
X-125501Y96876D01*
X-125501Y87274D01*
X-125501Y125374D02*
X-153899Y125374D01*
X-153899Y134976D01*
X-125501Y134976D01*
X-125501Y125374D01*
D15*
X38663Y133350D03*
X21663Y133350D03*
X-72000Y77788D03*
X-55000Y77788D03*
X-72000Y63500D03*
X-55000Y63500D03*
D17*
X-71438Y53538D03*
X-71438Y38538D03*
X-71438Y87750D03*
X-71438Y102750D03*
D14*
X32775Y114300D03*
X49775Y114300D03*
D16*
X-125501Y11074D02*
X-153899Y11074D01*
X-153899Y20676D01*
X-125501Y20676D01*
X-125501Y11074D01*
X-125501Y49174D02*
X-153899Y49174D01*
X-153899Y58776D01*
X-125501Y58776D01*
X-125501Y49174D01*
D15*
X82550Y110100D03*
X82550Y93100D03*
D14*
X-18025Y6350D03*
X-1025Y6350D03*
D18*
X11088Y125413D03*
X-7913Y125413D03*
M02*
