G04 EAGLE Gerber RS-274X export*
G75*
%MOMM*%
%FSLAX34Y34*%
%LPD*%
%INSoldermask Bottom*%
%IPPOS*%
%AMOC8*
5,1,8,0,0,1.08239X$1,22.5*%
G01*
%ADD10C,2.203200*%
%ADD11R,2.743200X2.743200*%
%ADD12C,1.303200*%
%ADD13R,1.041400X1.803400*%
%ADD14R,3.302000X1.803400*%
%ADD15R,2.903200X1.803200*%
%ADD16R,1.703200X1.503200*%
%ADD17C,1.173478*%
%ADD18R,1.203200X1.303200*%

G36*
X12818Y1921D02*
X12818Y1921D01*
X12937Y1928D01*
X12975Y1941D01*
X13016Y1946D01*
X13126Y1989D01*
X13239Y2026D01*
X13274Y2048D01*
X13311Y2063D01*
X13407Y2133D01*
X13508Y2196D01*
X13536Y2226D01*
X13569Y2249D01*
X13645Y2341D01*
X13726Y2428D01*
X13746Y2463D01*
X13771Y2494D01*
X13822Y2602D01*
X13880Y2706D01*
X13890Y2746D01*
X13907Y2782D01*
X13929Y2899D01*
X13959Y3014D01*
X13963Y3075D01*
X13967Y3095D01*
X13965Y3115D01*
X13969Y3175D01*
X13969Y45512D01*
X21163Y52706D01*
X52388Y52706D01*
X52506Y52721D01*
X52624Y52728D01*
X52663Y52741D01*
X52703Y52746D01*
X52814Y52789D01*
X52927Y52826D01*
X52961Y52848D01*
X52999Y52863D01*
X53095Y52933D01*
X53196Y52996D01*
X53223Y53026D01*
X53256Y53049D01*
X53332Y53141D01*
X53414Y53228D01*
X53433Y53263D01*
X53459Y53294D01*
X53510Y53402D01*
X53567Y53506D01*
X53577Y53546D01*
X53594Y53582D01*
X53617Y53699D01*
X53647Y53814D01*
X53650Y53875D01*
X53654Y53895D01*
X53653Y53915D01*
X53657Y53975D01*
X53657Y142875D01*
X53642Y142993D01*
X53634Y143112D01*
X53622Y143150D01*
X53617Y143191D01*
X53573Y143301D01*
X53536Y143414D01*
X53515Y143449D01*
X53500Y143486D01*
X53430Y143582D01*
X53366Y143683D01*
X53337Y143711D01*
X53313Y143744D01*
X53221Y143820D01*
X53135Y143901D01*
X53099Y143921D01*
X53068Y143946D01*
X52960Y143997D01*
X52856Y144055D01*
X52817Y144065D01*
X52780Y144082D01*
X52664Y144104D01*
X52548Y144134D01*
X52488Y144138D01*
X52468Y144142D01*
X52448Y144140D01*
X52388Y144144D01*
X-39688Y144144D01*
X-39806Y144129D01*
X-39924Y144122D01*
X-39963Y144109D01*
X-40003Y144104D01*
X-40114Y144061D01*
X-40227Y144024D01*
X-40261Y144002D01*
X-40299Y143987D01*
X-40395Y143918D01*
X-40496Y143854D01*
X-40523Y143824D01*
X-40556Y143801D01*
X-40632Y143709D01*
X-40714Y143622D01*
X-40733Y143587D01*
X-40759Y143556D01*
X-40810Y143448D01*
X-40867Y143344D01*
X-40877Y143304D01*
X-40894Y143268D01*
X-40917Y143151D01*
X-40947Y143036D01*
X-40950Y142976D01*
X-40954Y142956D01*
X-40953Y142935D01*
X-40957Y142875D01*
X-40957Y110807D01*
X-79693Y110807D01*
X-79693Y142875D01*
X-79708Y142993D01*
X-79716Y143112D01*
X-79728Y143150D01*
X-79733Y143191D01*
X-79777Y143301D01*
X-79814Y143414D01*
X-79835Y143449D01*
X-79850Y143486D01*
X-79920Y143582D01*
X-79984Y143683D01*
X-80013Y143711D01*
X-80037Y143744D01*
X-80129Y143820D01*
X-80215Y143901D01*
X-80251Y143921D01*
X-80282Y143946D01*
X-80390Y143997D01*
X-80494Y144055D01*
X-80533Y144065D01*
X-80570Y144082D01*
X-80686Y144104D01*
X-80802Y144134D01*
X-80862Y144138D01*
X-80882Y144142D01*
X-80902Y144140D01*
X-80963Y144144D01*
X-109538Y144144D01*
X-109656Y144129D01*
X-109774Y144122D01*
X-109813Y144109D01*
X-109853Y144104D01*
X-109964Y144061D01*
X-110077Y144024D01*
X-110111Y144002D01*
X-110149Y143987D01*
X-110245Y143918D01*
X-110346Y143854D01*
X-110373Y143824D01*
X-110406Y143801D01*
X-110482Y143709D01*
X-110564Y143622D01*
X-110583Y143587D01*
X-110609Y143556D01*
X-110660Y143448D01*
X-110717Y143344D01*
X-110727Y143304D01*
X-110744Y143268D01*
X-110767Y143151D01*
X-110797Y143036D01*
X-110800Y142976D01*
X-110804Y142956D01*
X-110803Y142935D01*
X-110807Y142875D01*
X-110807Y55563D01*
X-110792Y55444D01*
X-110784Y55326D01*
X-110772Y55287D01*
X-110767Y55247D01*
X-110723Y55136D01*
X-110686Y55023D01*
X-110665Y54989D01*
X-110650Y54951D01*
X-110580Y54855D01*
X-110516Y54754D01*
X-110487Y54727D01*
X-110463Y54694D01*
X-110371Y54618D01*
X-110285Y54536D01*
X-110249Y54517D01*
X-110218Y54491D01*
X-110110Y54440D01*
X-110006Y54383D01*
X-109967Y54373D01*
X-109930Y54356D01*
X-109814Y54333D01*
X-109698Y54303D01*
X-109638Y54300D01*
X-109618Y54296D01*
X-109598Y54297D01*
X-109538Y54293D01*
X-10794Y54293D01*
X-10794Y3175D01*
X-10779Y3057D01*
X-10772Y2938D01*
X-10759Y2900D01*
X-10754Y2859D01*
X-10711Y2749D01*
X-10674Y2636D01*
X-10652Y2601D01*
X-10637Y2564D01*
X-10568Y2468D01*
X-10504Y2367D01*
X-10474Y2339D01*
X-10451Y2306D01*
X-10359Y2231D01*
X-10272Y2149D01*
X-10237Y2129D01*
X-10206Y2104D01*
X-10098Y2053D01*
X-9994Y1995D01*
X-9954Y1985D01*
X-9918Y1968D01*
X-9801Y1946D01*
X-9686Y1916D01*
X-9626Y1912D01*
X-9606Y1908D01*
X-9585Y1910D01*
X-9525Y1906D01*
X12700Y1906D01*
X12818Y1921D01*
G37*
D10*
X-60325Y12700D03*
X-60325Y131763D03*
X74613Y131763D03*
X73025Y12700D03*
D11*
X138113Y14288D03*
X138113Y131763D03*
D12*
X138250Y95525D03*
X138250Y50525D03*
D13*
X23114Y39434D03*
X0Y39434D03*
X-23114Y39434D03*
D14*
X0Y103442D03*
D15*
X-50800Y39975D03*
X-50800Y67975D03*
D16*
X46038Y39713D03*
X46038Y58713D03*
D17*
X-125501Y87274D02*
X-153899Y87274D01*
X-153899Y96876D01*
X-125501Y96876D01*
X-125501Y87274D01*
X-125501Y125374D02*
X-153899Y125374D01*
X-153899Y134976D01*
X-125501Y134976D01*
X-125501Y125374D01*
X-125501Y11074D02*
X-153899Y11074D01*
X-153899Y20676D01*
X-125501Y20676D01*
X-125501Y11074D01*
X-125501Y49174D02*
X-153899Y49174D01*
X-153899Y58776D01*
X-125501Y58776D01*
X-125501Y49174D01*
D18*
X-104775Y24838D03*
X-104775Y41838D03*
M02*
