G04 EAGLE Gerber RS-274X export*
G75*
%MOMM*%
%FSLAX34Y34*%
%LPD*%
%INSolderpaste Bottom*%
%IPPOS*%
%AMOC8*
5,1,8,0,0,1.08239X$1,22.5*%
G01*
%ADD10R,2.540000X2.540000*%
%ADD11R,0.838200X1.600200*%
%ADD12R,3.098800X1.600200*%
%ADD13R,2.700000X1.600000*%
%ADD14R,1.500000X1.300000*%
%ADD15C,0.965200*%
%ADD16R,1.000000X1.100000*%


D10*
X138113Y14288D03*
X138113Y131763D03*
D11*
X23114Y39434D03*
X0Y39434D03*
X-23114Y39434D03*
D12*
X0Y103442D03*
D13*
X-50800Y39975D03*
X-50800Y67975D03*
D14*
X46038Y39713D03*
X46038Y58713D03*
D15*
X-125476Y87249D02*
X-153924Y87249D01*
X-153924Y96901D01*
X-125476Y96901D01*
X-125476Y87249D01*
X-125476Y96418D02*
X-153924Y96418D01*
X-153924Y125349D02*
X-125476Y125349D01*
X-153924Y125349D02*
X-153924Y135001D01*
X-125476Y135001D01*
X-125476Y125349D01*
X-125476Y134518D02*
X-153924Y134518D01*
X-153924Y11049D02*
X-125476Y11049D01*
X-153924Y11049D02*
X-153924Y20701D01*
X-125476Y20701D01*
X-125476Y11049D01*
X-125476Y20218D02*
X-153924Y20218D01*
X-153924Y49149D02*
X-125476Y49149D01*
X-153924Y49149D02*
X-153924Y58801D01*
X-125476Y58801D01*
X-125476Y49149D01*
X-125476Y58318D02*
X-153924Y58318D01*
D16*
X-104775Y24838D03*
X-104775Y41838D03*
M02*
