G04 EAGLE Gerber RS-274X export*
G75*
%MOMM*%
%FSLAX34Y34*%
%LPD*%
%INSolderpaste Bottom*%
%IPPOS*%
%AMOC8*
5,1,8,0,0,1.08239X$1,22.5*%
G01*
%ADD10R,2.540000X2.540000*%
%ADD11R,0.838200X1.600200*%
%ADD12R,3.098800X1.600200*%
%ADD13R,2.700000X1.600000*%
%ADD14R,1.500000X1.300000*%
%ADD15R,1.300000X1.500000*%
%ADD16C,0.965200*%
%ADD17R,1.000000X1.100000*%
%ADD18R,1.100000X1.000000*%


D10*
X165100Y-50800D03*
X165100Y66675D03*
D11*
X65977Y4509D03*
X42863Y4509D03*
X19749Y4509D03*
D12*
X42863Y68517D03*
D13*
X-9525Y5050D03*
X-9525Y33050D03*
D14*
X92075Y3150D03*
X92075Y-15850D03*
D15*
X25425Y-53975D03*
X44425Y-53975D03*
D16*
X-98489Y-15939D02*
X-126937Y-15939D01*
X-126937Y-6287D01*
X-98489Y-6287D01*
X-98489Y-15939D01*
X-98489Y-6770D02*
X-126937Y-6770D01*
X-126937Y-54039D02*
X-98489Y-54039D01*
X-126937Y-54039D02*
X-126937Y-44387D01*
X-98489Y-44387D01*
X-98489Y-54039D01*
X-98489Y-44870D02*
X-126937Y-44870D01*
D17*
X43425Y-34925D03*
X26425Y-34925D03*
D18*
X-77788Y2613D03*
X-77788Y19613D03*
X-61913Y2613D03*
X-61913Y19613D03*
D16*
X-98489Y22162D02*
X-126937Y22162D01*
X-126937Y31814D01*
X-98489Y31814D01*
X-98489Y22162D01*
X-98489Y31331D02*
X-126937Y31331D01*
X-126937Y60262D02*
X-98489Y60262D01*
X-126937Y60262D02*
X-126937Y69914D01*
X-98489Y69914D01*
X-98489Y60262D01*
X-98489Y69431D02*
X-126937Y69431D01*
D17*
X61913Y-39125D03*
X61913Y-56125D03*
X-84138Y34363D03*
X-84138Y51363D03*
M02*
