G04 EAGLE Gerber RS-274X export*
G75*
%MOMM*%
%FSLAX34Y34*%
%LPD*%
%INSolderpaste Top*%
%IPPOS*%
%AMOC8*
5,1,8,0,0,1.08239X$1,22.5*%
G01*
%ADD10R,2.300000X1.200000*%
%ADD11R,0.400000X1.700000*%
%ADD12R,1.100000X1.000000*%
%ADD13R,1.000000X1.100000*%
%ADD14R,0.800000X0.800000*%
%ADD15R,1.300000X1.500000*%


D10*
X110750Y108025D03*
X110750Y83025D03*
X110750Y63025D03*
X110750Y38025D03*
D11*
X-37488Y25325D03*
X-30988Y25325D03*
X-24488Y25325D03*
X-17988Y25325D03*
X-11488Y25325D03*
X-4988Y25325D03*
X1513Y25325D03*
X8013Y25325D03*
X14513Y25325D03*
X21013Y25325D03*
X27513Y25325D03*
X34013Y25325D03*
X40513Y25325D03*
X47013Y25325D03*
X47013Y95325D03*
X40513Y95325D03*
X34013Y95325D03*
X27513Y95325D03*
X21013Y95325D03*
X14513Y95325D03*
X8013Y95325D03*
X1513Y95325D03*
X-4988Y95325D03*
X-11488Y95325D03*
X-17988Y95325D03*
X-24488Y95325D03*
X-30988Y95325D03*
X-37488Y95325D03*
D12*
X66113Y79375D03*
X83113Y79375D03*
X66113Y36513D03*
X83113Y36513D03*
D13*
X83113Y50800D03*
X66113Y50800D03*
X83113Y65088D03*
X66113Y65088D03*
D12*
X10088Y114300D03*
X-6913Y114300D03*
D13*
X38663Y133350D03*
X21663Y133350D03*
X-72000Y77788D03*
X-55000Y77788D03*
X-72000Y63500D03*
X-55000Y63500D03*
D14*
X-71438Y53538D03*
X-71438Y38538D03*
X-71438Y87750D03*
X-71438Y102750D03*
D12*
X32775Y114300D03*
X49775Y114300D03*
D13*
X82550Y110100D03*
X82550Y93100D03*
D12*
X-18025Y6350D03*
X-1025Y6350D03*
D15*
X11088Y125413D03*
X-7913Y125413D03*
M02*
