G04 EAGLE Gerber RS-274X export*
G75*
%MOMM*%
%FSLAX34Y34*%
%LPD*%
%INSoldermask Top*%
%IPPOS*%
%AMOC8*
5,1,8,0,0,1.08239X$1,22.5*%
G01*
%ADD10C,2.203200*%
%ADD11R,2.503200X1.403200*%
%ADD12C,1.303200*%
%ADD13R,0.653200X1.903200*%
%ADD14R,1.303200X1.203200*%
%ADD15R,1.203200X1.303200*%
%ADD16C,1.173478*%
%ADD17R,1.403200X1.403200*%


D10*
X-33338Y-52388D03*
X-33338Y66675D03*
X101600Y66675D03*
X100013Y-52388D03*
D11*
X137738Y42938D03*
X137738Y17938D03*
X137738Y-2063D03*
X137738Y-27063D03*
D12*
X165238Y30438D03*
X165238Y-14563D03*
D13*
X-18438Y-31825D03*
X-11938Y-31825D03*
X-5438Y-31825D03*
X1063Y-31825D03*
X7563Y-31825D03*
X14063Y-31825D03*
X20563Y-31825D03*
X27063Y-31825D03*
X33563Y-31825D03*
X40063Y-31825D03*
X46563Y-31825D03*
X53063Y-31825D03*
X59563Y-31825D03*
X66063Y-31825D03*
X66063Y38175D03*
X59563Y38175D03*
X53063Y38175D03*
X46563Y38175D03*
X40063Y38175D03*
X33563Y38175D03*
X27063Y38175D03*
X20563Y38175D03*
X14063Y38175D03*
X7563Y38175D03*
X1063Y38175D03*
X-5438Y38175D03*
X-11938Y38175D03*
X-18438Y38175D03*
D14*
X93100Y28575D03*
X110100Y28575D03*
X93100Y-17463D03*
X110100Y-17463D03*
D15*
X110100Y-1588D03*
X93100Y-1588D03*
X110100Y14288D03*
X93100Y14288D03*
D14*
X33900Y60325D03*
X16900Y60325D03*
D16*
X-98514Y-15914D02*
X-126912Y-15914D01*
X-126912Y-6312D01*
X-98514Y-6312D01*
X-98514Y-15914D01*
X-98514Y-54014D02*
X-126912Y-54014D01*
X-126912Y-44412D01*
X-98514Y-44412D01*
X-98514Y-54014D01*
D17*
X-46038Y-6963D03*
X-46038Y-27963D03*
X-46038Y10138D03*
X-46038Y31138D03*
D14*
X53413Y61913D03*
X70413Y61913D03*
D16*
X-98514Y22187D02*
X-126912Y22187D01*
X-126912Y31789D01*
X-98514Y31789D01*
X-98514Y22187D01*
X-98514Y60287D02*
X-126912Y60287D01*
X-126912Y69889D01*
X-98514Y69889D01*
X-98514Y60287D01*
D14*
X2150Y-53975D03*
X-14850Y-53975D03*
M02*
