G04 EAGLE Gerber RS-274X export*
G75*
%MOMM*%
%FSLAX34Y34*%
%LPD*%
%INSolderpaste Top*%
%IPPOS*%
%AMOC8*
5,1,8,0,0,1.08239X$1,22.5*%
G01*
%ADD10R,2.300000X1.200000*%
%ADD11R,0.450000X1.700000*%
%ADD12R,1.100000X1.000000*%
%ADD13R,1.000000X1.100000*%
%ADD14R,1.200000X1.200000*%


D10*
X137738Y42938D03*
X137738Y17938D03*
X137738Y-2063D03*
X137738Y-27063D03*
D11*
X-18438Y-31825D03*
X-11938Y-31825D03*
X-5438Y-31825D03*
X1063Y-31825D03*
X7563Y-31825D03*
X14063Y-31825D03*
X20563Y-31825D03*
X27063Y-31825D03*
X33563Y-31825D03*
X40063Y-31825D03*
X46563Y-31825D03*
X53063Y-31825D03*
X59563Y-31825D03*
X66063Y-31825D03*
X66063Y38175D03*
X59563Y38175D03*
X53063Y38175D03*
X46563Y38175D03*
X40063Y38175D03*
X33563Y38175D03*
X27063Y38175D03*
X20563Y38175D03*
X14063Y38175D03*
X7563Y38175D03*
X1063Y38175D03*
X-5438Y38175D03*
X-11938Y38175D03*
X-18438Y38175D03*
D12*
X93100Y28575D03*
X110100Y28575D03*
X93100Y-17463D03*
X110100Y-17463D03*
D13*
X110100Y-1588D03*
X93100Y-1588D03*
X110100Y14288D03*
X93100Y14288D03*
D12*
X33900Y60325D03*
X16900Y60325D03*
D14*
X-46038Y-6963D03*
X-46038Y-27963D03*
X-46038Y10138D03*
X-46038Y31138D03*
D12*
X53413Y61913D03*
X70413Y61913D03*
X2150Y-53975D03*
X-14850Y-53975D03*
M02*
